<?xml version="1.0" encoding="utf-8"?>
<!-- Generator: Adobe Illustrator 22.0.1, SVG Export Plug-In . SVG Version: 6.00 Build 0)  -->
<svg version="1.1" id="Lager_1" xmlns="http://www.w3.org/2000/svg" xmlns:xlink="http://www.w3.org/1999/xlink" x="0px" y="0px"
	 viewBox="0 0 500 500" style="enable-background:new 0 0 500 500;" xml:space="preserve">
<style type="text/css">
	.st0{fill:#FFFFFF;}
	.st1{fill:#DF7126;}
	.st2{fill:#DB9667;}
</style>
<polygon class="st0" points="317.4,245.7 392.4,245.7 392.4,263.9 387.3,263.9 387.3,270.4 317.4,270.4 317.4,261.9 311.4,261.9 
	311.4,245.7 "/>
<polygon class="st0" points="224.3,245.7 299.8,245.7 299.8,263.4 294.2,263.4 294.2,270.4 224.3,270.4 224.3,262.9 "/>
<polygon class="st0" points="129.9,245.7 207.1,245.7 207.1,263.9 207.1,270.4 129.9,270.4 "/>
<polygon class="st1" points="21.5,144.3 444.5,143 445.6,162.5 462.2,163.8 462.2,187.2 477.8,187.2 478.9,204.1 500,206.7 
	498.9,325.2 480,325.2 480,347.3 460,347.3 460,364.2 129.9,364.2 129.9,348 109.5,347.4 110.4,281.4 129.9,280.3 207.1,280.3 
	207.1,263.9 224.3,262.9 224.3,279.2 293,280.8 294.2,263.4 317.4,261.9 317.2,279.2 387.1,279.2 387.3,263.9 392.4,263.9 
	408.5,263.9 408.1,245.7 21.5,245.7 21.5,222.4 0,221.9 0,164 20.5,162.9 "/>
<rect x="114.2" y="245.7" width="15.8" height="18.5"/>
<rect x="129.9" y="270.4" width="77.2" height="9.8"/>
<rect x="207.1" y="245.7" width="17.2" height="17.2"/>
<rect x="224.3" y="270.4" width="68.7" height="10.4"/>
<rect x="299.8" y="245.7" width="11.6" height="17.2"/>
<rect x="317.5" y="270.7" width="69.6" height="8.5"/>
<rect x="392.4" y="245.7" width="16.1" height="18.2"/>
<rect x="20.5" y="162.9" class="st2" width="424.8" height="22.5"/>
<rect x="462.8" y="204.1" class="st2" width="18.9" height="22.2"/>
<rect x="445.2" y="185.4" class="st2" width="17.6" height="18.7"/>
<rect x="129.9" y="287.4" class="st2" width="262.5" height="18.3"/>
</svg>
