<?xml version="1.0" encoding="utf-8"?>
<!-- Generator: Adobe Illustrator 22.0.1, SVG Export Plug-In . SVG Version: 6.00 Build 0)  -->
<svg version="1.1" xmlns="http://www.w3.org/2000/svg" xmlns:xlink="http://www.w3.org/1999/xlink" x="0px" y="0px"
	 viewBox="0 0 1920 1080" style="enable-background:new 0 0 1920 1080;" xml:space="preserve">
<style type="text/css">
	.st0{fill:#87BDE3;}
	.st1{fill:#FFFFFF;stroke:#FFFFFF;stroke-miterlimit:10;}
	.st2{fill:#FFFFFF;}
	.st3{fill:#D6D7D8;stroke:#FFFFFF;stroke-miterlimit:10;}
</style>
<g id="Lager_1">
	<rect y="3" class="st0" width="1920" height="1080"/>
	<path class="st0" d="M1539-165"/>
</g>
<g id="Lager_2">
</g>
<g id="Lager_3">
	<path class="st1" d="M1372.5,247.5c0,0-54-23-8-46c0,0-2-44,43-37c0,0,18-49,81-18c0,0,38-47,83,0c0,0,31-2,44,33c0,0,98,19,0,60
		c0,0-16,34-62,10c0,0-20,25-49,12c0,0-35,27-71-3c0,0-24,7-34-10C1399.5,248.5,1379.5,259.5,1372.5,247.5z"/>
	<path class="st2" d="M1379,354c0,0-56,31,24,53c0,0,31,38,56,0c0,0,45,51,71,0c0,0,94,11,23-53c0,0-22-57-87-22c0,0-30-13-45,7
		C1421,339,1399,307,1379,354z"/>
	<path class="st2" d="M555,498c0,0-10-10-16,5c0,0-50,36,8,62c0,0,25,24,56,5c0,0,28,26,61-6c0,0,42,42,76,4c0,0,67-6,33-46
		c0,0,15-33-37-38c0,0-27-44-75-15c0,0-23-16-47-1C614,468,564,448,555,498z"/>
	<path class="st3" d="M1362,241.9c0,0,53.5-39.4,75.5-17.4c0,0,32-17,50,4c0,0,50-29,79-4c0,0,44-30,52-5c0,0,20-20.8,33.5-0.9
		c0,0-3.5,12.9-36.5,20.9c0,0-21,38-62,10c0,0-22,26-49,12c0,0-29,30-71-3c0,0-26,8-34-10c0,0-20,13-27-1
		C1372.5,247.5,1366.5,251.2,1362,241.9z"/>
	<path class="st3" d="M1382.5,400c0,0,26-26.5,48-8.5c0,0,40-37,51-4c0,0,55-25,62-2c0,0,23.6-13.1,34.3-1.6
		c10.7,11.6-4.3,24.6-47.3,22.6c0,0-24,49-71,0c0,0-29,40-56,0C1403.5,406.5,1393.4,406.5,1382.5,400z"/>
	<path class="st3" d="M519,540c0,0,42.5-20.5,75.5,9.5c0,0,52-21,67,0c0,0,19-12,40,3c0,0,21-15,45,0c0,0,21.1-6,31,0c0,0,3,9-37,16
		c0,0-28,36-76-4c0,0-34,27-61,6c0,0-27,21-56-5C547.5,565.5,528.4,561.5,519,540z"/>
	<path class="st2" d="M1081,415c0,0-56,31,24,53c0,0,31,38,56,0c0,0,45,51,71,0c0,0,94,11,23-53c0,0-22-57-87-22c0,0-30-13-45,7
		C1123,400,1101,368,1081,415z"/>
	<path class="st3" d="M1084.5,461c0,0,26-26.5,48-8.5c0,0,40-37,51-4c0,0,55-25,62-2c0,0,23.6-13.1,34.3-1.6
		c10.7,11.6-4.3,24.6-47.3,22.6c0,0-24,49-71,0c0,0-29,40-56,0C1105.5,467.5,1095.4,467.5,1084.5,461z"/>
	<path class="st1" d="M728.5,272.5c0,0-54-23-8-46c0,0-2-44,43-37c0,0,18-49,81-18c0,0,38-47,83,0c0,0,31-2,44,33c0,0,98,19,0,60
		c0,0-16,34-62,10c0,0-20,25-49,12c0,0-35,27-71-3c0,0-24,7-34-10C755.5,273.5,735.5,284.5,728.5,272.5z"/>
	<path class="st3" d="M718,266.9c0,0,53.5-39.4,75.5-17.4c0,0,32-17,50,4c0,0,50-29,79-4c0,0,44-30,52-5c0,0,20-20.8,33.5-0.9
		c0,0-3.5,12.9-36.5,20.9c0,0-21,38-62,10c0,0-22,26-49,12c0,0-29,30-71-3c0,0-26,8-34-10c0,0-20,13-27-1
		C728.5,272.5,722.5,276.2,718,266.9z"/>
	<path class="st2" d="M252,188c0,0-56,31,24,53c0,0,31,38,56,0c0,0,45,51,71,0c0,0,94,11,23-53c0,0-22-57-87-22c0,0-30-13-45,7
		C294,173,272,141,252,188z"/>
	<path class="st3" d="M255.5,234c0,0,26-26.5,48-8.5c0,0,40-37,51-4c0,0,55-25,62-2c0,0,23.6-13.1,34.3-1.6
		c10.7,11.6-4.3,24.6-47.3,22.6c0,0-24,49-71,0c0,0-29,40-56,0C276.5,240.5,266.4,240.5,255.5,234z"/>
	<path class="st2" d="M548,325.5c0,0-38.3,20.3,16.4,34.7c0,0,21.2,24.9,38.3,0c0,0,30.7,33.4,48.5,0c0,0,64.2,7.2,15.7-34.7
		c0,0-15-37.3-59.4-14.4c0,0-20.5-8.5-30.7,4.6C576.7,315.7,561.7,294.7,548,325.5z"/>
	<path class="st3" d="M550.4,355.6c0,0,17.8-17.3,32.8-5.6c0,0,27.3-24.2,34.8-2.6c0,0,37.6-16.4,42.4-1.3c0,0,16.1-8.6,23.4-1
		c7.3,7.6-2.9,16.1-32.3,14.8c0,0-16.4,32.1-48.5,0c0,0-19.8,26.2-38.3,0C564.8,359.8,557.9,359.8,550.4,355.6z"/>
	<path class="st1" d="M68.5,483.5c0,0-54-23-8-46c0,0-2-44,43-37c0,0,18-49,81-18c0,0,38-47,83,0c0,0,31-2,44,33c0,0,98,19,0,60
		c0,0-16,34-62,10c0,0-20,25-49,12c0,0-35,27-71-3c0,0-24,7-34-10C95.5,484.5,75.5,495.5,68.5,483.5z"/>
	<path class="st3" d="M58,477.9c0,0,53.5-39.4,75.5-17.4c0,0,32-17,50,4c0,0,50-29,79-4c0,0,44-30,52-5c0,0,20-20.8,33.5-0.9
		c0,0-3.5,12.9-36.5,20.9c0,0-21,38-62,10c0,0-22,26-49,12c0,0-29,30-71-3c0,0-26,8-34-10c0,0-20,13-27-1
		C68.5,483.5,62.5,487.2,58,477.9z"/>
	<path class="st1" d="M1555.5,580.5c0,0-54-23-8-46c0,0-2-44,43-37c0,0,18-49,81-18c0,0,38-47,83,0c0,0,31-2,44,33c0,0,98,19,0,60
		c0,0-16,34-62,10c0,0-20,25-49,12c0,0-35,27-71-3c0,0-24,7-34-10C1582.5,581.5,1562.5,592.5,1555.5,580.5z"/>
	<path class="st3" d="M1545,574.9c0,0,53.5-39.4,75.5-17.4c0,0,32-17,50,4c0,0,50-29,79-4c0,0,44-30,52-5c0,0,20-20.8,33.5-0.9
		c0,0-3.5,12.9-36.5,20.9c0,0-21,38-62,10c0,0-22,26-49,12c0,0-29,30-71-3c0,0-26,8-34-10c0,0-20,13-27-1
		C1555.5,580.5,1549.5,584.2,1545,574.9z"/>
</g>
</svg>
