<?xml version="1.0" encoding="utf-8"?>
<!-- Generator: Adobe Illustrator 22.0.1, SVG Export Plug-In . SVG Version: 6.00 Build 0)  -->
<svg version="1.1" id="Lager_1" xmlns="http://www.w3.org/2000/svg" xmlns:xlink="http://www.w3.org/1999/xlink" x="0px" y="0px"
	 viewBox="0 0 500 500" style="enable-background:new 0 0 500 500;" xml:space="preserve">
<style type="text/css">
	.st0{fill:#EAED54;}
	.st1{fill:#FFFFFF;}
	.st2{fill:#D54949;}
</style>
<rect x="-0.5" y="33.5" width="25" height="466"/>
<rect x="25" y="473" width="475" height="27"/>
<rect x="474" y="34" width="26" height="444"/>
<rect x="447" y="34" width="28" height="28"/>
<rect x="421" y="62" width="26" height="30"/>
<rect x="395" y="92" width="26" height="32"/>
<rect x="367" y="121" width="28" height="31"/>
<rect x="341" y="152" width="26" height="28"/>
<rect x="315" y="124" width="26" height="28"/>
<rect x="289" y="92" width="26" height="32"/>
<rect x="263" y="64" width="26" height="28"/>
<rect x="236" y="34" width="26" height="30"/>
<rect x="210" y="63" width="26" height="29"/>
<rect x="184" y="93" width="26" height="28"/>
<rect x="157" y="121" width="26" height="31"/>
<rect x="131" y="152" width="26" height="28"/>
<rect x="103" y="122" width="28" height="28"/>
<rect x="78" y="93" width="26" height="28"/>
<rect x="52" y="63" width="26" height="29"/>
<rect x="22" y="34" width="29" height="29"/>
<polygon class="st0" points="22,63 51,63 52,92 78,92 78,121 104,121 103,150 131,150 131,180 157,180 157,152 183,152 183,121 
	210,121 210,93 236,92 236,63 262,64 263,92 289,92 289,124 315,124 315,152 341,152 341,180 367,180 367,152 395,152 395,124 
	421,124 421,92 447,92 447,62 475,62 474,478 25,473 "/>
<polygon class="st1" points="210,239 236,239 236,209 262,209 262,152 236,152 236,180 210,180 "/>
<polygon class="st1" points="52,209 78,209 78,152 51,152 "/>
<polygon class="st1" points="395,209 421,209 421,181 395,180 "/>
<rect x="316" y="358" class="st1" width="26" height="26"/>
<rect x="395" y="358" class="st1" width="26" height="26"/>
<rect x="235" y="358" class="st1" width="26" height="26"/>
<rect x="144" y="358" class="st1" width="26" height="26"/>
<rect x="52" y="358" class="st1" width="26" height="26"/>
<polygon class="st2" points="263,180.5 289,180 289,267 263,267 262,297 235,297 235,270 210,270 210,239 236,239 236,209 262,209 
	"/>
</svg>
