<?xml version="1.0" encoding="utf-8"?>
<!-- Generator: Adobe Illustrator 22.0.1, SVG Export Plug-In . SVG Version: 6.00 Build 0)  -->
<svg version="1.1" id="Lager_1" xmlns="http://www.w3.org/2000/svg" xmlns:xlink="http://www.w3.org/1999/xlink" x="0px" y="0px"
	 viewBox="0 0 1280 1024" style="enable-background:new 0 0 1280 1024;" xml:space="preserve">
<style type="text/css">
	.st0{fill:none;stroke:#000000;stroke-width:4;stroke-miterlimit:10;}
	.st1{fill:none;stroke:#000000;stroke-miterlimit:10;}
	.st2{font-family:'MyriadPro-Regular';}
	.st3{font-size:46.9789px;}
	.st4{fill:none;}
	.st5{font-size:12px;}
	.st6{fill:#FFFFFF;stroke:#000000;stroke-width:3;stroke-miterlimit:10;}
	.st7{font-size:14.9115px;}
	.st8{font-size:16.3957px;}
	.st9{font-size:12.7943px;}
	.st10{fill:none;stroke:#000000;stroke-width:3;stroke-miterlimit:10;}
	.st11{font-size:31.0913px;}
	.st12{fill:none;stroke:#000000;stroke-width:2;stroke-miterlimit:10;}
	.st13{fill:#FFFFFF;stroke:#000000;stroke-width:0.5;stroke-miterlimit:10;}
	.st14{fill:none;stroke:#000000;stroke-width:0.5;stroke-miterlimit:10;}
	.st15{font-family:'Helvetica';}
	.st16{font-size:24.2972px;}
	.st17{fill:#FFFFFF;}
	.st18{fill:#FFFFFF;stroke:#000000;stroke-miterlimit:10;}
	.st19{font-size:18.4973px;}
	.st20{font-size:17.0047px;}
	.st21{font-size:22.7569px;}
	.st22{font-size:23.8073px;}
	.st23{font-size:23.6578px;}
</style>
<g>
	<polygon class="st0" points="573.9,451.9 97.6,451.9 97.6,134.7 97.6,106 573.9,106 573.9,137.1 	"/>
	<rect x="97.6" y="106" class="st0" width="476.3" height="31.1"/>
	<circle class="st0" cx="136.2" cy="121.8" r="3.9"/>
	<circle class="st0" cx="123.6" cy="122" r="4.1"/>
	<circle class="st0" cx="110.8" cy="122" r="4.1"/>
</g>
<g>
	<polygon class="st0" points="1175.4,451.9 699.1,451.9 699.1,134.7 699.1,106 1175.4,106 1175.4,137.1 	"/>
	<rect x="699.1" y="106" class="st0" width="476.3" height="31.1"/>
	<circle class="st0" cx="737.7" cy="121.8" r="3.9"/>
	<circle class="st0" cx="725.1" cy="122" r="4.1"/>
	<circle class="st0" cx="712.3" cy="122" r="4.1"/>
</g>
<g>
	<polygon class="st0" points="573.9,931.1 97.6,931.1 97.6,613.9 97.6,585.2 573.9,585.2 573.9,616.3 	"/>
	<rect x="97.6" y="585.2" class="st0" width="476.3" height="31.1"/>
	<circle class="st0" cx="136.2" cy="601" r="3.9"/>
	<circle class="st0" cx="123.6" cy="601.2" r="4.1"/>
	<circle class="st0" cx="110.8" cy="601.2" r="4.1"/>
</g>
<g>
	<polygon class="st0" points="1175.4,931.1 699.1,931.1 699.1,613.9 699.1,585.2 1175.4,585.2 1175.4,616.3 	"/>
	<rect x="699.1" y="585.2" class="st0" width="476.3" height="31.1"/>
	<circle class="st0" cx="737.7" cy="601" r="3.9"/>
	<circle class="st0" cx="725.1" cy="601.2" r="4.1"/>
	<circle class="st0" cx="712.3" cy="601.2" r="4.1"/>
</g>
<rect x="97.6" y="137.1" class="st1" width="476.3" height="54.3"/>
<text transform="matrix(0.6467 0 0 1 235.8475 271.721)" class="st2 st3">Did you know!?</text>
<rect x="255.6" y="294.1" class="st4" width="160.4" height="61"/>
<text transform="matrix(1 0 0 1 255.5638 302.579)"><tspan x="0" y="0" class="st2 st5">Lorem ipsum dolor sit amet, </tspan><tspan x="0" y="14.4" class="st2 st5">consectetuer adipiscing elit, sed </tspan><tspan x="0" y="28.8" class="st2 st5">diam nonummy nibh euismod </tspan><tspan x="0" y="43.2" class="st2 st5">tincidunt ut laoreet dolore </tspan></text>
<rect x="97.6" y="416" class="st1" width="476.3" height="35.9"/>
<polyline class="st6" points="332,421 339,409 344.4,421 352,409 356.5,421 366,409 371,421 379.5,409 383.9,421 395,409 397.9,421 
	405,409 409,419 417,409 421.5,421 430,409 434.5,421 443,409 446,418 449,423 456,409 460,421.4 470,409 473,418 473,423 483,409 
	485.1,421.4 492,409 495.7,421.4 503,409 506,419 514,409 519,421.4 526,409 526.9,423 538,409 538,421.4 550,409 550,421.4 
	557,409 560.2,421.4 566.4,409 "/>
<polyline class="st6" points="97.6,421 104.6,409 110.1,421 117.6,409 122.1,421 131.6,409 136.6,421 145.1,409 149.6,421 
	160.6,409 163.5,421 170.6,409 174.6,419 182.6,409 187.1,421 195.6,409 200.1,421 208.6,409 211.6,418 214.6,423 221.6,409 
	225.7,421.4 235.6,409 238.6,418 238.6,423 248.6,409 250.7,421.4 257.6,409 261.3,421.4 268.6,409 271.6,419 279.6,409 
	284.6,421.4 291.6,409 292.5,423 303.6,409 303.6,421.4 315.6,409 315.6,421.4 322.6,409 325.9,421.4 332,409 "/>
<path class="st4" d="M97.6,137.1l476.3,314.7L97.6,137.1z"/>
<text transform="matrix(0.7964 0 0 1 123.6212 174.4754)" class="st2 st7">Home</text>
<text transform="matrix(0.819 0 0 1 179.8555 174.4754)" class="st2 st8">Whacked fact</text>
<text transform="matrix(1.1075 0 0 1 284.3262 175.0049)" class="st2 st9">Geek of the Week</text>
<text transform="matrix(1.1075 0 0 1 424.9831 174.4754)" class="st2 st9">Beak of the Week</text>
<rect x="700.7" y="137.1" class="st1" width="476.3" height="54.3"/>
<polyline class="st10" points="700.8,414 707.8,402 713.2,414 720.8,402 725.3,414 734.8,402 739.8,414 748.3,402 752.7,414 
	763.8,402 766.7,414 773.8,402 777.8,412 785.8,402 790.3,414 798.8,402 803.3,414 811.8,402 814.8,411 817.8,416 824.8,402 
	828.9,414.4 838.8,402 841.8,411 841.8,416 851.8,402 853.9,414.4 860.8,402 864.5,414.4 871.8,402 874.8,412 882.8,402 
	887.8,414.4 894.8,402 895.7,416 906.8,402 906.8,414.4 918.8,402 918.8,414.4 925.8,402 929,414.4 935.2,402 "/>
<text transform="matrix(0.9736 0 0 1 843.2373 246.7563)" class="st2 st11">Whacked fact</text>
<rect x="737.7" y="333.7" class="st4" width="104.1" height="42.7"/>
<text transform="matrix(1 0 0 1 737.7079 342.1958)"><tspan x="0" y="0" class="st2 st5">Lorem ipsum dolor </tspan><tspan x="0" y="14.4" class="st2 st5">sit amet, consectetu</tspan><tspan x="100.2" y="14.4" class="st2 st5">-</tspan><tspan x="0" y="28.8" class="st2 st5">er adipiscing elit, </tspan></text>
<rect x="886.8" y="333.7" class="st4" width="104.1" height="42.7"/>
<text transform="matrix(1 0 0 1 886.8332 342.1958)"><tspan x="0" y="0" class="st2 st5">Lorem ipsum dolor </tspan><tspan x="0" y="14.4" class="st2 st5">sit amet, consectetu</tspan><tspan x="100.2" y="14.4" class="st2 st5">-</tspan><tspan x="0" y="28.8" class="st2 st5">er adipiscing elit, </tspan></text>
<rect x="1045.6" y="333.7" class="st4" width="104.1" height="42.7"/>
<text transform="matrix(1 0 0 1 1045.556 342.1958)"><tspan x="0" y="0" class="st2 st5">Lorem ipsum dolor </tspan><tspan x="0" y="14.4" class="st2 st5">sit amet, consectetu</tspan><tspan x="100.2" y="14.4" class="st2 st5">-</tspan><tspan x="0" y="28.8" class="st2 st5">er adipiscing elit, </tspan></text>
<rect x="770.3" y="285.6" class="st12" width="38.9" height="38.9"/>
<rect x="915.7" y="285.6" class="st12" width="38.9" height="38.9"/>
<rect x="1078.2" y="285.6" class="st12" width="38.9" height="38.9"/>
<text transform="matrix(0.7964 0 0 1 736.1522 174.2105)" class="st2 st7">Home</text>
<text transform="matrix(0.819 0 0 1 792.3864 174.2105)" class="st2 st8">Whacked fact</text>
<text transform="matrix(1.1075 0 0 1 896.8571 174.74)" class="st2 st9">Geek of the Week</text>
<text transform="matrix(1.1075 0 0 1 1037.5139 174.2105)" class="st2 st9">Beak of the Week</text>
<path class="st13" d="M97.6,191.5L573.9,416L97.6,191.5z"/>
<path class="st13" d="M104.6,409l469.3-217.6L104.6,409z"/>
<path class="st14" d="M700.7,191.5"/>
<path class="st1" d="M707.8,402L1177,191.5L707.8,402z"/>
<polyline class="st6" points="1169.6,402 1163.4,414.4 1160.2,402 1153.2,414.4 1153.2,402 1141.2,414.4 1141.2,402 1130.1,416 
	1129.2,402 1122.2,414.4 1117.2,402 1109.2,412 1106.2,402 1098.9,414.4 1095.2,402 1088.3,414.4 1086.2,402 1076.2,416 1076.2,411 
	1073.2,402 1063.2,414.4 1059.2,402 1052.2,416 1049.2,411 1046.2,402 1037.7,414 1033.2,402 1024.7,414 1020.2,402 1012.2,412 
	1008.2,402 1001.1,414 998.2,402 987.1,414 982.7,402 974.2,414 969.2,402 959.7,414 955.2,402 947.6,414 942.2,402 935.2,414 "/>
<path class="st6" d="M700.7,191.5"/>
<path class="st1" d="M700.8,194.4L1169.6,406L700.8,194.4z"/>
<rect x="97.6" y="616.3" class="st1" width="476.3" height="54.3"/>
<text transform="matrix(0.7964 0 0 1 123.6212 653.668)" class="st2 st7">Home</text>
<text transform="matrix(0.819 0 0 1 179.8555 653.668)" class="st2 st8">Whacked fact</text>
<text transform="matrix(1.1075 0 0 1 284.3262 654.1976)" class="st2 st9">Geek of the Week</text>
<text transform="matrix(1.1075 0 0 1 424.9831 653.668)" class="st2 st9">Beak of the Week</text>
<polyline class="st6" points="332,903 339,891 344.4,903 352,891 356.5,903 366,891 371,903 379.5,891 383.9,903 395,891 397.9,903 
	405,891 409,901 417,891 421.5,903 430,891 434.5,903 443,891 446,900 449,905 456,891 460,903.4 470,891 473,900 473,905 483,891 
	485.1,903.4 492,891 495.7,903.4 503,891 506,901 514,891 519,903.4 526,891 526.9,905 538,891 538,903.4 550,891 550,903.4 
	557,891 560.2,903.4 566.4,891 "/>
<polyline class="st6" points="97.6,903 104.6,891 110.1,903 117.6,891 122.1,903 131.6,891 136.6,903 145.1,891 149.6,903 
	160.6,891 163.5,903 170.6,891 174.6,901 182.6,891 187.1,903 195.6,891 200.1,903 208.6,891 211.6,900 214.6,905 221.6,891 
	225.7,903.4 235.6,891 238.6,900 238.6,905 248.6,891 250.7,903.4 257.6,891 261.3,903.4 268.6,891 271.6,901 279.6,891 
	284.6,903.4 291.6,891 292.5,905 303.6,891 303.6,903.4 315.6,891 315.6,903.4 322.6,891 325.9,903.4 332,891 "/>
<path class="st13" d="M97.6,673.5L573.9,898L97.6,673.5z"/>
<path class="st13" d="M104.6,891l469.3-217.6L104.6,891z"/>
<polyline class="st6" points="931.4,896 938.4,884 943.9,896 951.4,884 955.9,896 965.4,884 970.4,896 978.9,884 983.4,896 
	994.4,884 997.3,896 1004.4,884 1008.4,894 1016.4,884 1020.9,896 1029.4,884 1034,896 1042.4,884 1045.4,893 1048.4,898 
	1055.4,884 1059.5,896.4 1069.4,884 1072.4,893 1072.4,898 1082.4,884 1084.5,896.4 1091.4,884 1095.1,896.4 1102.4,884 1105.4,894 
	1113.4,884 1118.4,896.4 1125.4,884 1126.3,898 1137.4,884 1137.4,896.4 1149.4,884 1149.4,896.4 1156.4,884 1159.7,896.4 
	1165.8,884 "/>
<polyline class="st6" points="697,896 704,884 709.5,896 717,884 721.5,896 731,884 736,896 744.6,884 749,896 760,884 763,896 
	770,884 774,894 782,884 786.6,896 795,884 799.6,896 808,884 811,893 814,898 821,884 825.1,896.4 835,884 838,893 838,898 
	848,884 850.1,896.4 857,884 860.7,896.4 868,884 871,894 879,884 884,896.4 891,884 892,898 903,884 903,896.4 915,884 915,896.4 
	922,884 925.3,896.4 931.4,884 "/>
<path class="st13" d="M697,666.5L1173.3,891L697,666.5z"/>
<path class="st13" d="M704,884l469.3-217.6L704,884z"/>
<rect x="699.1" y="617.9" class="st1" width="476.3" height="54.3"/>
<text transform="matrix(0.7964 0 0 1 725.1345 655.2126)" class="st2 st7">Home</text>
<text transform="matrix(0.819 0 0 1 781.3687 655.2126)" class="st2 st8">Whacked fact</text>
<text transform="matrix(1.1075 0 0 1 885.8394 655.7422)" class="st2 st9">Geek of the Week</text>
<text transform="matrix(1.1075 0 0 1 1026.4963 655.2126)" class="st2 st9">Beak of the Week</text>
<text transform="matrix(1.0388 0 0 1 223.4023 716.0186)" class="st15 st16">Geek of the Week</text>
<g>
	<circle class="st17" cx="210.2" cy="783.3" r="24.5"/>
	<path d="M210.2,759.3c13.2,0,24,10.8,24,24s-10.8,24-24,24s-24-10.8-24-24S197,759.3,210.2,759.3 M210.2,758.3
		c-13.8,0-25,11.2-25,25s11.2,25,25,25s25-11.2,25-25S224,758.3,210.2,758.3L210.2,758.3z"/>
</g>
<path class="st18" d="M225.7,769l-37.5,32.6L225.7,769z"/>
<path class="st18" d="M226.5,798.2l-36.8-33.7L226.5,798.2z"/>
<polygon points="195.2,744.3 195.2,760.3 222.2,760.3 222.2,744.3 215.2,749.3 210.2,744.3 204.2,749.3 "/>
<rect x="162.7" y="823.4" class="st4" width="104.1" height="42.7"/>
<text transform="matrix(1 0 0 1 162.7235 831.9693)"><tspan x="0" y="0" class="st2 st5">Lorem ipsum dolor </tspan><tspan x="0" y="14.4" class="st2 st5">sit amet, consectetu</tspan><tspan x="100.2" y="14.4" class="st2 st5">-</tspan><tspan x="0" y="28.8" class="st2 st5">er adipiscing elit, </tspan></text>
<rect x="364.6" y="744.7" class="st1" width="150" height="19"/>
<rect x="363.1" y="773.2" class="st1" width="150" height="19"/>
<text transform="matrix(1.2535 0 0 1 411.5648 760.6206)" class="st15 st19">namn</text>
<text transform="matrix(1.2539 0 0 1 411.5648 787.3389)" class="st15 st20">adress</text>
<rect x="364.6" y="808.7" class="st1" width="149" height="57"/>
<text transform="matrix(0.922 0 0 1 377.6234 845.2783)" class="st15 st21">Shit ’n submit</text>
<text transform="matrix(0.9083 0 0 1 843.2372 720.9551)" class="st15 st22">Beak of the Week</text>
<g>
	<polygon class="st17" points="873.4,796.1 959.5,748.2 959.5,814.7 	"/>
	<path d="M959,749v65.1l-84.2-18.2L959,749 M960,747.3l-88,49l88,19V747.3L960,747.3z"/>
</g>
<path class="st18" d="M871.5,795.8l64-2L871.5,795.8z"/>
<ellipse class="st18" cx="947.5" cy="768.3" rx="5" ry="5.5"/>
<rect x="860.2" y="829.8" class="st18" width="150" height="31"/>
<text transform="matrix(0.8724 0 0 1 870.9167 852.5918)" class="st15 st23">Share ’n care</text>
</svg>
