<?xml version="1.0" encoding="utf-8"?>
<!-- Generator: Adobe Illustrator 22.0.1, SVG Export Plug-In . SVG Version: 6.00 Build 0)  -->
<svg version="1.1" id="Lager_1" xmlns="http://www.w3.org/2000/svg" xmlns:xlink="http://www.w3.org/1999/xlink" x="0px" y="0px"
	 viewBox="0 0 1280 1024" style="enable-background:new 0 0 1280 1024;" xml:space="preserve">
<style type="text/css">
	.st0{fill:none;}
	.st1{opacity:0.91;}
	.st2{font-family:'DINCondensed-Bold';}
	.st3{font-size:102px;}
	.st4{fill:none;stroke:#000000;stroke-miterlimit:10;}
	.st5{stroke:#000000;stroke-width:2;stroke-miterlimit:10;}
	.st6{stroke:#000000;stroke-width:3;stroke-miterlimit:10;}
</style>
<polygon class="st0" points="650.7,204.7 648.6,204.7 648.6,204.7 650.7,204.7 "/>
<rect x="415.8" y="188.5" class="st0" width="469.2" height="107"/>
<text transform="matrix(1 0 0 1 415.8389 261.1304)" class="st1 st2 st3">Flödesschema</text>
<rect x="480.6" y="344.5" class="st4" width="334.6" height="89.4"/>
<g>
	<g>
		<path d="M581.7,371.2v41.3h-3.2v-41.3H581.7z"/>
		<path d="M592.3,390.4c0-2.6,0-5.1-0.1-7.4h2.9c0.1,0.9,0.2,4.8,0.1,5.6c1.3-3,3.7-6.3,9.7-6.3c5.2,0,9.8,3,9.8,11.1v19.1h-2.9
			v-18.7c0-5.3-2.2-8.7-7.3-8.7c-7,0-9.4,5.8-9.4,12.3v15.1h-2.9V390.4z"/>
		<path d="M647,369v35c0,2.8,0,5.6,0.1,8.5h-2.8c-0.1-0.7-0.2-3.5-0.2-5c-1.5,3.6-4.7,5.7-9.8,5.7c-7.6,0-12.2-6.3-12.2-15.1
			c0-9.1,5-15.8,13-15.8c5.9,0,8.2,2.5,9.1,4.4V369H647z M625.1,398c0,8.1,4.2,12.5,9.2,12.5c7.7,0,9.8-5.4,9.8-13.4
			c0-7.6-1.8-12-9.3-12C629.1,385.1,625.1,389.7,625.1,398z"/>
		<path d="M657.2,398.1c0.1,7.6,3.9,12.3,9.5,12.3c5.5,0,7.4-3.1,8.4-5.6h3c-1.2,3.9-4.3,8.3-11.5,8.3c-8.9,0-12.4-7.7-12.4-15.2
			c0-8.4,4.2-15.7,12.7-15.7c9,0,11.9,7.9,11.9,13.4c0,0.8,0,1.7-0.1,2.4H657.2z M675.8,395.5c-0.1-5.8-3.2-10.5-9-10.5
			c-6,0-8.8,4.3-9.4,10.5H675.8z"/>
		<path d="M685.5,383c4.9,7.3,7,10.5,8.1,12.3h0.1c1.4-2,4.3-6.3,8.6-12.3h3.3l-10.2,14.3l10.4,15.2h-3.5
			c-4.2-6.3-7.3-10.8-8.7-12.9h-0.1c-1.1,1.7-3.8,5.7-8.6,12.9h-3.4l10.4-15L682,383H685.5z"/>
	</g>
</g>
<rect x="843.5" y="532.7" class="st4" width="334.6" height="89.4"/>
<rect x="113" y="532.7" class="st4" width="334.6" height="89.4"/>
<rect x="478.3" y="532.7" class="st4" width="334.6" height="89.4"/>
<g>
	<g>
		<path d="M142.4,597.3l-10.1-39.4h2.9c2.4,9.5,8,31.2,8.8,35.9h0.1c0.7-3.7,6.7-25.4,9.2-35.9h3.1c2.4,9.6,8.2,32.8,8.8,35.8h0.1
			c1.1-5.6,7.2-26.4,9.7-35.8h2.9l-11.1,39.4h-3.2c-2.4-9.3-8.1-32.1-8.7-35.5h-0.1c-0.9,5.1-6.6,25.7-9.2,35.5H142.4z"/>
		<path d="M185.9,555.8v18.1c1.5-2.9,4-5.4,8.6-5.4c3.7,0,8.8,2,8.8,10.9v17.9h-2.6v-17.3c0-5.6-2.3-8.7-6.7-8.7
			c-5.2,0-8.1,3.4-8.1,10.4v15.7h-2.6v-41.5H185.9z"/>
		<path d="M229.7,591.9c0,2.5,0.2,4.4,0.4,5.3h-2.5c-0.2-0.7-0.4-1.9-0.5-4.3c-0.9,2.1-3.2,5-8.5,5c-6,0-8.6-4.2-8.6-8.4
			c0-6.2,4.4-9,12.2-9c2.2,0,3.9,0,4.9,0v-2.9c0-2.8-0.8-6.6-6.7-6.6c-5.3,0-6,3-6.6,5.3h-2.6c0.3-3.1,2.1-7.9,9.3-7.9
			c5.9,0,9.3,2.7,9.3,8.9V591.9z M227.1,582.9c-1,0-3.4,0-5.1,0c-5.8,0-9.4,1.6-9.4,6.5c0,3.5,2.3,6,6,6c7.4,0,8.5-5.3,8.5-11.4
			V582.9z"/>
		<path d="M257.4,589c-1.2,5-4.3,9-10.1,9c-6.5,0-11.1-5.2-11.1-14.6c0-7.7,3.8-14.9,11.4-14.9c6.6,0,9.3,5.1,9.8,9h-2.7
			c-0.8-3.3-2.8-6.4-7.2-6.4c-5.5,0-8.6,5.1-8.6,12.1c0,6.7,2.9,12.1,8.4,12.1c3.8,0,6.1-2.1,7.4-6.3H257.4z"/>
		<path d="M266.1,583.6c2.4-2.8,9.7-10.8,13.2-14.5h3.3l-10.3,11.2l11.6,16.9h-3.2l-10.3-15.1l-4.3,4.5v10.6h-2.6v-41.5h2.6V583.6z"
			/>
		<path d="M288.4,583.5c0.1,7.3,3.4,11.8,8.4,11.8c4.9,0,6.6-3,7.5-5.3h2.7c-1.1,3.7-3.9,7.9-10.3,7.9c-7.9,0-11-7.4-11-14.5
			c0-8,3.7-15,11.3-15c8,0,10.6,7.5,10.6,12.8c0,0.8,0,1.6-0.1,2.3H288.4z M304.9,581c-0.1-5.6-2.9-10-8-10c-5.4,0-7.8,4.1-8.4,10
			H304.9z"/>
		<path d="M334.1,555.8v33.4c0,2.7,0,5.3,0.1,8.1h-2.5c-0.1-0.7-0.2-3.3-0.2-4.7c-1.3,3.4-4.2,5.4-8.7,5.4c-6.8,0-10.8-6-10.8-14.4
			c0-8.7,4.4-15.1,11.5-15.1c5.2,0,7.3,2.4,8.1,4.2v-16.9H334.1z M314.7,583.4c0,7.7,3.7,11.9,8.2,11.9c6.9,0,8.7-5.1,8.7-12.8
			c0-7.3-1.6-11.4-8.3-11.4C318.1,571.1,314.7,575.5,314.7,583.4z"/>
		<path d="M356.8,597.3v-25.5h-4.5v-2.6h4.5v-4c0-4.7,1.2-9.9,7.1-9.9c0.8,0,1.9,0.2,2.5,0.4v2.7c-0.8-0.2-2-0.3-2.8-0.3
			c-3.1,0-4.2,2.4-4.2,7.3v3.9h5.7v2.6h-5.7v25.5H356.8z"/>
		<path d="M387,591.9c0,2.5,0.2,4.4,0.4,5.3h-2.5c-0.2-0.7-0.4-1.9-0.5-4.3c-0.9,2.1-3.2,5-8.5,5c-6,0-8.6-4.2-8.6-8.4
			c0-6.2,4.4-9,12.2-9c2.2,0,3.9,0,4.9,0v-2.9c0-2.8-0.8-6.6-6.7-6.6c-5.3,0-6,3-6.6,5.3h-2.6c0.3-3.1,2.1-7.9,9.3-7.9
			c5.9,0,9.3,2.7,9.3,8.9V591.9z M384.5,582.9c-1,0-3.4,0-5.1,0c-5.8,0-9.4,1.6-9.4,6.5c0,3.5,2.3,6,6,6c7.4,0,8.5-5.3,8.5-11.4
			V582.9z"/>
		<path d="M414.8,589c-1.2,5-4.3,9-10.1,9c-6.5,0-11.1-5.2-11.1-14.6c0-7.7,3.8-14.9,11.4-14.9c6.6,0,9.3,5.1,9.8,9h-2.7
			c-0.8-3.3-2.8-6.4-7.2-6.4c-5.5,0-8.6,5.1-8.6,12.1c0,6.7,2.9,12.1,8.4,12.1c3.8,0,6.1-2.1,7.4-6.3H414.8z"/>
		<path d="M416.9,569.1h4.8v-8.8h2.6v8.8h6.2v2.6h-6.2V590c0,3.2,0.6,5,3.1,5c0.8,0,1.9-0.1,2.7-0.3v2.5c-0.9,0.4-2.1,0.5-3.2,0.5
			c-3.3,0-5.2-1.8-5.2-6.3v-19.6h-4.8V569.1z"/>
	</g>
</g>
<g>
	<g>
		<path d="M516.8,597.6h-1.9c-0.2-0.4-0.3-2.3-0.3-5.8c-1.1,2.5-3.4,6.2-9.6,6.2c-8.6,0-12.9-7.9-12.9-18.3c0-10.8,4.7-19,13.4-19
			c6.4,0,10.7,4.1,11.6,10.8h-2.3c-1.3-5.1-4.2-8.2-9.4-8.2c-7.5,0-10.9,7.1-10.9,16.2c0,8.3,3.3,15.8,10.6,15.8
			c7.5,0,9.5-5.9,9.5-13.9v-0.4h-9.6v-2.6h11.8V597.6z"/>
		<path d="M523.9,585c0,6.7,2.8,10.8,6.9,10.8c4,0,5.4-2.7,6.1-4.9h2.2c-0.9,3.4-3.1,7.3-8.4,7.3c-6.5,0-9-6.8-9-13.4
			c0-7.4,3-13.8,9.2-13.8c6.6,0,8.6,6.9,8.6,11.8c0,0.7,0,1.5,0,2.1H523.9z M537.4,582.7c0-5.1-2.3-9.2-6.5-9.2
			c-4.4,0-6.4,3.7-6.9,9.2H537.4z"/>
		<path d="M545.3,585c0,6.7,2.8,10.8,6.9,10.8c4,0,5.4-2.7,6.1-4.9h2.2c-0.9,3.4-3.2,7.3-8.4,7.3c-6.5,0-9-6.8-9-13.4
			c0-7.4,3-13.8,9.2-13.8c6.6,0,8.6,6.9,8.6,11.8c0,0.7,0,1.5,0,2.1H545.3z M558.8,582.7c0-5.1-2.3-9.2-6.5-9.2
			c-4.4,0-6.4,3.7-6.9,9.2H558.8z"/>
		<path d="M568.3,585.1c2-2.5,7.9-9.9,10.8-13.4h2.7l-8.4,10.3l9.5,15.6h-2.6l-8.4-13.9l-3.5,4.1v9.8h-2.1v-38.2h2.1V585.1z"/>
		<path d="M614.5,584.6c0,7.2-3.3,13.6-9.6,13.6c-5.7,0-9.3-5.8-9.3-13.6c0-7.4,3.4-13.6,9.5-13.6
			C610.7,571.1,614.5,576.5,614.5,584.6z M597.8,584.7c0,6.2,2.7,11.1,7.2,11.1c4.6,0,7.2-4.6,7.2-11.1c0-6.1-2.6-11.1-7.3-11.1
			C600.1,573.5,597.8,578.5,597.8,584.7z"/>
		<path d="M620.3,597.6v-23.5h-3.7v-2.4h3.7V568c0-4.4,1-9.1,5.8-9.1c0.6,0,1.6,0.2,2.1,0.4v2.5c-0.6-0.2-1.7-0.3-2.3-0.3
			c-2.5,0-3.4,2.2-3.4,6.7v3.6h4.6v2.4h-4.6v23.5H620.3z"/>
		<path d="M638.3,571.7h4v-8.1h2.1v8.1h5.1v2.4h-5.1V591c0,2.9,0.5,4.6,2.6,4.6c0.6,0,1.5-0.1,2.2-0.3v2.3c-0.7,0.4-1.7,0.5-2.6,0.5
			c-2.7,0-4.3-1.7-4.3-5.8v-18h-4V571.7z"/>
		<path d="M655.9,559.4v16.6c1.2-2.7,3.3-5,7-5c3,0,7.2,1.9,7.2,10.1v16.5H668v-16c0-5.1-1.9-8-5.4-8c-4.2,0-6.6,3.2-6.6,9.5v14.5
			h-2.1v-38.2H655.9z"/>
		<path d="M677.6,585c0,6.7,2.8,10.8,6.9,10.8c4,0,5.4-2.7,6.1-4.9h2.2c-0.9,3.4-3.2,7.3-8.4,7.3c-6.5,0-9-6.8-9-13.4
			c0-7.4,3-13.8,9.2-13.8c6.6,0,8.6,6.9,8.6,11.8c0,0.7,0,1.5,0,2.1H677.6z M691.1,582.7c0-5.1-2.3-9.2-6.5-9.2
			c-4.4,0-6.4,3.7-6.9,9.2H691.1z"/>
		<path d="M709.6,571.7c3.1,13.4,5,21.1,5.3,23.3h0c0.3-2.1,2.5-10.2,5.8-23.3h2.3c4,16,5.2,20.6,5.5,22.7h0
			c0.6-2.9,1.6-6.7,5.5-22.7h2.3l-6.7,25.9h-2.3c-2.3-9.2-5.1-20.4-5.5-22.8h0c-0.4,2.5-2.9,11.8-5.6,22.8h-2.6l-6.3-25.9H709.6z"/>
		<path d="M741.6,585c0,6.7,2.8,10.8,6.9,10.8c4,0,5.4-2.7,6.1-4.9h2.2c-0.9,3.4-3.2,7.3-8.4,7.3c-6.5,0-9-6.8-9-13.4
			c0-7.4,3-13.8,9.2-13.8c6.6,0,8.6,6.9,8.6,11.8c0,0.7,0,1.5,0,2.1H741.6z M755.1,582.7c0-5.1-2.3-9.2-6.5-9.2
			c-4.4,0-6.4,3.7-6.9,9.2H755.1z"/>
		<path d="M763,585c0,6.7,2.8,10.8,6.9,10.8c4,0,5.4-2.7,6.1-4.9h2.2c-0.9,3.4-3.2,7.3-8.4,7.3c-6.5,0-9-6.8-9-13.4
			c0-7.4,3-13.8,9.2-13.8c6.6,0,8.6,6.9,8.6,11.8c0,0.7,0,1.5,0,2.1H763z M776.5,582.7c0-5.1-2.3-9.2-6.5-9.2
			c-4.4,0-6.4,3.7-6.9,9.2H776.5z"/>
		<path d="M786,585.1c2-2.5,7.9-9.9,10.8-13.4h2.7l-8.4,10.3l9.5,15.6h-2.6l-8.4-13.9l-3.5,4.1v9.8h-2.1v-38.2h2.1V585.1z"/>
	</g>
</g>
<g>
	<g>
		<path d="M861.4,561.3h10.4c5.7,0,8.8,3.7,8.8,8.9c0,4.3-2.1,7.1-4.6,7.9c2.1,0.7,5.7,3.3,5.7,9c0,7.3-4.5,10.5-9.7,10.5h-10.6
			V561.3z M871,577c5.2,0,7.1-2.3,7.1-6.5c0-3.6-2-6.5-6.2-6.5h-8.3v13H871z M863.7,595.1h8.4c3.9,0,7.2-2.4,7.2-7.7
			c0-4.6-2.4-7.8-8.4-7.8h-7.2V595.1z"/>
		<path d="M887.9,585c0,6.7,2.8,10.8,6.9,10.8c4,0,5.4-2.7,6.1-4.9h2.2c-0.9,3.4-3.2,7.3-8.4,7.3c-6.5,0-9-6.8-9-13.4
			c0-7.4,3-13.8,9.2-13.8c6.6,0,8.6,6.9,8.6,11.8c0,0.7,0,1.5,0,2.1H887.9z M901.4,582.7c0-5.1-2.3-9.2-6.5-9.2
			c-4.4,0-6.4,3.7-6.9,9.2H901.4z"/>
		<path d="M923.4,592.7c0,2.3,0.2,4.1,0.3,4.9h-2c-0.2-0.6-0.3-1.8-0.4-4c-0.7,1.9-2.6,4.6-7,4.6c-4.9,0-7.1-3.9-7.1-7.8
			c0-5.7,3.6-8.3,10-8.3c1.8,0,3.2,0,4,0v-2.6c0-2.6-0.6-6.1-5.5-6.1c-4.3,0-4.9,2.7-5.4,4.9h-2.1c0.3-2.9,1.7-7.3,7.6-7.3
			c4.9,0,7.6,2.5,7.6,8.2V592.7z M921.3,584.4c-0.8,0-2.8,0-4.2,0c-4.7,0-7.7,1.5-7.7,6c0,3.3,1.9,5.5,4.9,5.5
			c6.1,0,6.9-4.9,6.9-10.5V584.4z"/>
		<path d="M932.5,585.1c2-2.5,7.9-9.9,10.8-13.4h2.7l-8.4,10.3l9.5,15.6h-2.6l-8.4-13.9l-3.5,4.1v9.8h-2.1v-38.2h2.1V585.1z"/>
		<path d="M978.7,584.6c0,7.2-3.3,13.6-9.6,13.6c-5.7,0-9.3-5.8-9.3-13.6c0-7.4,3.4-13.6,9.5-13.6
			C974.9,571.1,978.7,576.5,978.7,584.6z M962,584.7c0,6.2,2.7,11.1,7.2,11.1c4.6,0,7.2-4.6,7.2-11.1c0-6.1-2.6-11.1-7.3-11.1
			C964.3,573.5,962,578.5,962,584.7z"/>
		<path d="M984.5,597.6v-23.5h-3.7v-2.4h3.7V568c0-4.4,1-9.1,5.8-9.1c0.6,0,1.6,0.2,2.1,0.4v2.5c-0.6-0.2-1.7-0.3-2.3-0.3
			c-2.5,0-3.4,2.2-3.4,6.7v3.6h4.6v2.4h-4.6v23.5H984.5z"/>
		<path d="M1002.5,571.7h4v-8.1h2.1v8.1h5.1v2.4h-5.1V591c0,2.9,0.5,4.6,2.6,4.6c0.6,0,1.5-0.1,2.2-0.3v2.3
			c-0.7,0.4-1.7,0.5-2.6,0.5c-2.7,0-4.3-1.7-4.3-5.8v-18h-4V571.7z"/>
		<path d="M1020.1,559.4v16.6c1.2-2.7,3.3-5,7-5c3,0,7.2,1.9,7.2,10.1v16.5h-2.1v-16c0-5.1-1.9-8-5.4-8c-4.2,0-6.6,3.2-6.6,9.5v14.5
			h-2.1v-38.2H1020.1z"/>
		<path d="M1041.8,585c0,6.7,2.8,10.8,6.9,10.8c4,0,5.4-2.7,6.1-4.9h2.2c-0.9,3.4-3.2,7.3-8.4,7.3c-6.5,0-9-6.8-9-13.4
			c0-7.4,3-13.8,9.2-13.8c6.6,0,8.6,6.9,8.6,11.8c0,0.7,0,1.5,0,2.1H1041.8z M1055.3,582.7c0-5.1-2.3-9.2-6.5-9.2
			c-4.4,0-6.4,3.7-6.9,9.2H1055.3z"/>
		<path d="M1073.8,571.7c3.2,13.4,5,21.1,5.3,23.3h0c0.3-2.1,2.5-10.2,5.8-23.3h2.3c4,16,5.2,20.6,5.5,22.7h0
			c0.6-2.9,1.6-6.7,5.5-22.7h2.3l-6.7,25.9h-2.3c-2.3-9.2-5.1-20.4-5.5-22.8h0c-0.4,2.5-2.9,11.8-5.6,22.8h-2.6l-6.3-25.9H1073.8z"
			/>
		<path d="M1105.8,585c0,6.7,2.8,10.8,6.9,10.8c4,0,5.4-2.7,6.1-4.9h2.2c-0.9,3.4-3.2,7.3-8.4,7.3c-6.5,0-9-6.8-9-13.4
			c0-7.4,3-13.8,9.2-13.8c6.6,0,8.6,6.9,8.6,11.8c0,0.7,0,1.5,0,2.1H1105.8z M1119.3,582.7c0-5.1-2.3-9.2-6.5-9.2
			c-4.4,0-6.4,3.7-6.9,9.2H1119.3z"/>
		<path d="M1127.2,585c0,6.7,2.8,10.8,6.9,10.8c4,0,5.4-2.7,6.1-4.9h2.2c-0.9,3.4-3.2,7.3-8.4,7.3c-6.5,0-9-6.8-9-13.4
			c0-7.4,3-13.8,9.2-13.8c6.6,0,8.6,6.9,8.6,11.8c0,0.7,0,1.5,0,2.1H1127.2z M1140.7,582.7c0-5.1-2.3-9.2-6.5-9.2
			c-4.4,0-6.4,3.7-6.9,9.2H1140.7z"/>
		<path d="M1150.2,585.1c2-2.5,7.9-9.9,10.8-13.4h2.7l-8.4,10.3l9.5,15.6h-2.6l-8.4-13.9l-3.5,4.1v9.8h-2.1v-38.2h2.1V585.1z"/>
	</g>
</g>
<rect x="845.9" y="719.6" class="st4" width="334.6" height="89.4"/>
<rect x="115.4" y="719.6" class="st4" width="334.6" height="89.4"/>
<rect x="480.6" y="719.6" class="st4" width="334.6" height="89.4"/>
<g>
	<g>
		<path d="M179.4,742.2h21.6v3.1h-18.9v16.1h17.7v3.1h-17.7V785h-2.8V742.2z"/>
		<path d="M224.1,779.2c0,2.7,0.2,4.8,0.4,5.8H222c-0.2-0.7-0.4-2.1-0.5-4.7c-0.9,2.3-3.1,5.4-8.4,5.4c-5.9,0-8.5-4.6-8.5-9.2
			c0-6.7,4.3-9.8,12-9.8c2.1,0,3.8,0,4.9,0v-3.1c0-3.1-0.8-7.1-6.6-7.1c-5.2,0-5.9,3.2-6.5,5.7h-2.6c0.3-3.4,2-8.5,9.1-8.5
			c5.8,0,9.1,2.9,9.1,9.6V779.2z M221.6,769.4c-1,0-3.3,0-5,0c-5.7,0-9.2,1.8-9.2,7c0,3.8,2.3,6.5,5.9,6.5c7.3,0,8.3-5.8,8.3-12.4
			V769.4z"/>
		<path d="M251.3,776c-1.2,5.4-4.2,9.7-9.9,9.7c-6.4,0-10.9-5.7-10.9-15.9c0-8.4,3.7-16.1,11.2-16.1c6.5,0,9.1,5.5,9.6,9.8h-2.6
			c-0.8-3.5-2.7-6.9-7-6.9c-5.4,0-8.5,5.5-8.5,13.1c0,7.3,2.9,13.1,8.2,13.1c3.7,0,6-2.3,7.3-6.8H251.3z"/>
		<path d="M257.8,770.1c0.1,7.9,3.4,12.8,8.3,12.8c4.8,0,6.4-3.2,7.4-5.7h2.6c-1.1,4-3.8,8.6-10.1,8.6c-7.8,0-10.8-8-10.8-15.8
			c0-8.7,3.6-16.2,11.1-16.2c7.9,0,10.4,8.1,10.4,13.9c0,0.9,0,1.7-0.1,2.5H257.8z M274,767.4c-0.1-6-2.8-10.8-7.8-10.8
			c-5.3,0-7.7,4.4-8.2,10.8H274z"/>
		<path d="M282.9,740h2.6v19.6c1.2-3.1,3.7-5.9,8.7-5.9c6,0,10.5,5.9,10.5,15.3c0,9.6-4,16.7-11.1,16.7c-4.3,0-6.7-2.1-8.1-5.6
			c0,2-0.1,4-0.1,4.8h-2.5c0.1-3.5,0.1-7,0.1-10.4V740z M301.9,769.1c0-7.6-3.2-12.5-8-12.5c-6.4,0-8.6,5.2-8.6,13.2
			c0,7.2,2,13.1,8.3,13.1C298.8,782.8,301.9,777.7,301.9,769.1z"/>
		<path d="M331.6,769.6c0,8.5-3.9,16.1-11.5,16.1c-6.9,0-11.2-6.8-11.2-16c0-8.7,4-16,11.4-16C327.2,753.7,331.6,760.1,331.6,769.6z
			 M311.6,769.7c0,7.3,3.3,13.1,8.7,13.1c5.5,0,8.6-5.4,8.6-13.1c0-7.2-3.1-13.1-8.7-13.1C314.4,756.6,311.6,762.4,311.6,769.7z"/>
		<path d="M358.7,769.6c0,8.5-3.9,16.1-11.5,16.1c-6.9,0-11.2-6.8-11.2-16c0-8.7,4-16,11.4-16C354.2,753.7,358.7,760.1,358.7,769.6z
			 M338.6,769.7c0,7.3,3.3,13.1,8.7,13.1c5.5,0,8.6-5.4,8.6-13.1c0-7.2-3.1-13.1-8.7-13.1C341.4,756.6,338.6,762.4,338.6,769.7z"/>
		<path d="M367.5,770.2c2.3-3,9.5-11.7,12.9-15.8h3.3l-10.1,12.2L385,785h-3.2l-10.1-16.4l-4.2,4.9V785H365v-45h2.6V770.2z"/>
	</g>
</g>
<g>
	<g>
		<path d="M553.5,743.9v41.5h-2.8v-41.5H553.5z"/>
		<path d="M563,763.3c0-2.6,0-5.1-0.1-7.5h2.6c0.1,0.9,0.2,4.8,0.1,5.6c1.2-3,3.3-6.3,8.7-6.3c4.7,0,8.8,3,8.8,11.1v19.2h-2.6v-18.7
			c0-5.3-1.9-8.7-6.5-8.7c-6.2,0-8.4,5.9-8.4,12.3v15.1H563V763.3z"/>
		<path d="M591.6,777.3c0.9,3.9,3.3,6.2,7.4,6.2c4.7,0,6.5-2.4,6.5-5.8c0-3.4-1.3-5-7.1-6.6c-6.7-1.8-8.4-4.1-8.4-8.1
			c0-4.1,2.7-7.9,8.6-7.9c5.9,0,8.7,4.1,9.2,8.3h-2.6c-0.5-2.5-2.2-5.6-6.6-5.6c-4.5,0-5.9,2.5-5.9,4.9c0,2.7,1.3,4.1,6.4,5.5
			c7.4,2,9.2,4.7,9.2,9.2c0,5.4-3.9,8.7-9.4,8.7c-6,0-9.3-3.6-10-8.9H591.6z"/>
		<path d="M610.9,755.8h4.9v-9.2h2.6v9.2h6.2v2.8h-6.2v19.3c0,3.3,0.6,5.2,3.1,5.2c0.8,0,1.9-0.1,2.7-0.4v2.6
			c-0.9,0.4-2.1,0.5-3.2,0.5c-3.3,0-5.2-1.9-5.2-6.6v-20.6h-4.9V755.8z"/>
		<path d="M647.9,779.8c0,2.6,0.2,4.7,0.4,5.6h-2.5c-0.2-0.7-0.4-2-0.5-4.6c-0.9,2.2-3.2,5.3-8.6,5.3c-6.1,0-8.7-4.4-8.7-8.9
			c0-6.5,4.4-9.5,12.3-9.5c2.2,0,3.9,0,5,0v-3c0-3-0.8-6.9-6.7-6.9c-5.3,0-6.1,3.1-6.6,5.6h-2.6c0.3-3.3,2.1-8.3,9.3-8.3
			c6,0,9.3,2.8,9.3,9.4V779.8z M645.3,770.3c-1,0-3.4,0-5.1,0c-5.8,0-9.4,1.7-9.4,6.8c0,3.7,2.4,6.3,6,6.3c7.5,0,8.5-5.6,8.5-12
			V770.3z"/>
		<path d="M676.5,783.4c0,9.5-3.7,14.5-11.3,14.5c-6.8,0-9.6-4.3-10.2-8.8h2.7c0.9,4.1,3.9,6,7.7,6c6.8,0,8.7-5,8.7-12.5v-3.1
			c-1.4,3.9-4,5.9-8.7,5.9c-6.1,0-10.8-5.6-10.8-14.8c0-10,5-15.5,11.2-15.5c5.3,0,7.6,2.8,8.4,5.2c0.1-1.7,0.1-3.8,0.2-4.5h2.5
			c0,1.1-0.1,5.8-0.1,8.6V783.4z M657.2,770.5c0,7.1,3.3,12.2,8.3,12.2c6.5,0,8.5-4.9,8.5-12.6c0-7.8-2.1-12.2-8.4-12.2
			C659.6,757.9,657.2,763.7,657.2,770.5z"/>
		<path d="M685.1,763.9c0-5-0.1-7.1-0.1-8.1h2.6c0.1,0.9,0.1,2.8,0.1,6.6c1.5-4.4,4.9-7.1,9.1-7.4v3.2c-5.4,0.4-9.1,4.7-9.1,11.7
			v15.4h-2.6V763.9z"/>
		<path d="M719.9,779.8c0,2.6,0.2,4.7,0.4,5.6h-2.5c-0.2-0.7-0.4-2-0.5-4.6c-0.9,2.2-3.2,5.3-8.6,5.3c-6.1,0-8.7-4.4-8.7-8.9
			c0-6.5,4.4-9.5,12.3-9.5c2.2,0,3.9,0,5,0v-3c0-3-0.8-6.9-6.7-6.9c-5.3,0-6.1,3.1-6.6,5.6h-2.6c0.3-3.3,2.1-8.3,9.3-8.3
			c6,0,9.3,2.8,9.3,9.4V779.8z M717.4,770.3c-1,0-3.4,0-5.1,0c-5.8,0-9.4,1.7-9.4,6.8c0,3.7,2.4,6.3,6,6.3c7.5,0,8.5-5.6,8.5-12
			V770.3z"/>
		<path d="M728.6,763.4c0-2.5,0-5.3-0.1-7.6h2.6c0.1,1,0.2,3.6,0.1,5.3c1.1-3,3.5-6,7.8-6c3.7,0,6.5,2.1,7.6,5.9
			c1.3-3.1,3.9-5.9,8.5-5.9c4,0,8.2,2.6,8.2,10.8v19.5h-2.6v-19.1c0-4-1.3-8.3-6.1-8.3c-5.1,0-7.4,4.6-7.4,10.4v17.1h-2.6v-19.1
			c0-4.3-1.2-8.4-6-8.4c-5.1,0-7.5,5.1-7.5,11.1v16.3h-2.6V763.4z"/>
	</g>
</g>
<g>
	<g>
		<path d="M950.4,746.9h-12.1v-3h27.1v3h-12.2v38.5h-2.8V746.9z"/>
		<path d="M970,755.8c3.8,15.3,6,24.1,6.4,26.7h0.1c0.4-2.4,3-11.7,7-26.7h2.8c4.8,18.3,6.2,23.6,6.7,25.9h0.1
			c0.7-3.3,1.9-7.7,6.6-25.9h2.7l-8.1,29.6h-2.8c-2.8-10.5-6.1-23.4-6.6-26.1h-0.1c-0.5,2.9-3.5,13.5-6.8,26.1h-3.1l-7.6-29.6H970z"
			/>
		<path d="M1008.1,741.8h2.6v5.8h-2.6V741.8z M1008.1,755.8h2.6v29.6h-2.6V755.8z"/>
		<path d="M1015.3,755.8h4.8v-9.2h2.6v9.2h6.1v2.8h-6.1v19.3c0,3.3,0.6,5.2,3.1,5.2c0.8,0,1.9-0.1,2.7-0.4v2.6
			c-0.9,0.4-2.1,0.5-3.2,0.5c-3.3,0-5.2-1.9-5.2-6.6v-20.6h-4.8V755.8z"/>
		<path d="M1030.2,755.8h4.8v-9.2h2.6v9.2h6.1v2.8h-6.1v19.3c0,3.3,0.6,5.2,3.1,5.2c0.8,0,1.9-0.1,2.7-0.4v2.6
			c-0.9,0.4-2.1,0.5-3.2,0.5c-3.3,0-5.2-1.9-5.2-6.6v-20.6h-4.8V755.8z"/>
		<path d="M1049.5,771c0.1,7.6,3.4,12.4,8.3,12.4c4.8,0,6.5-3.1,7.4-5.6h2.6c-1.1,3.9-3.8,8.4-10.2,8.4c-7.8,0-10.9-7.8-10.9-15.3
			c0-8.5,3.7-15.8,11.2-15.8c7.9,0,10.5,7.9,10.5,13.5c0,0.8,0,1.7-0.1,2.4H1049.5z M1065.9,768.4c-0.1-5.9-2.8-10.5-7.9-10.5
			c-5.3,0-7.7,4.3-8.3,10.5H1065.9z"/>
		<path d="M1074.8,763.9c0-5-0.1-7.1-0.1-8.1h2.5c0.1,0.9,0.1,2.8,0.1,6.6c1.5-4.4,4.8-7.1,9-7.4v3.2c-5.4,0.4-9,4.7-9,11.7v15.4
			h-2.6V763.9z"/>
	</g>
</g>
<polygon class="st5" points="637.9,433.9 637.9,483 637.9,532.1 "/>
<path class="st5" d="M1013.8,483.3l-0.6,48.8L1013.8,483.3z"/>
<path class="st5" d="M637.9,483.3h375.9H637.9z"/>
<path class="st5" d="M262,483.3h375.9H262z"/>
<path class="st5" d="M262,483.3l-0.6,48.8L262,483.3z"/>
<polygon class="st5" points="637.9,623.5 637.9,672.6 637.9,721.7 "/>
<path class="st5" d="M637.9,672.9h375.9H637.9z"/>
<path class="st5" d="M259.7,672.9h375.9H259.7z"/>
<path class="st5" d="M1013.8,671.5l-0.6,48.8L1013.8,671.5z"/>
<path class="st5" d="M262,671.5l-0.6,48.8L262,671.5z"/>
<path class="st5" d="M262,622.8l-0.6,48.8L262,622.8z"/>
<path class="st6" d="M1013.8,622.8l-0.6,48.8L1013.8,622.8z"/>
<polyline class="st4" points="629.1,501.6 637.9,514.4 645.6,501.6 "/>
<polyline class="st4" points="253.2,501.6 262,514.4 269.7,501.6 "/>
<polyline class="st4" points="1004.9,504.3 1013.8,517.1 1021.4,504.3 "/>
<polyline class="st4" points="1006.1,641.1 1015,653.8 1022.6,641.1 "/>
<polyline class="st4" points="629.1,641.1 637.9,653.8 645.6,641.1 "/>
<polyline class="st4" points="253.2,647.8 262,660.6 269.7,647.8 "/>
<polyline class="st4" points="629.1,689.8 637.9,702.6 645.6,689.8 "/>
<polyline class="st4" points="1004.9,689.8 1013.8,702.6 1021.4,689.8 "/>
<polyline class="st4" points="253.2,683.1 262,695.8 269.7,683.1 "/>
</svg>
