<?xml version="1.0" encoding="utf-8"?>
<!-- Generator: Adobe Illustrator 22.1.0, SVG Export Plug-In . SVG Version: 6.00 Build 0)  -->
<svg version="1.1" id="Lager_1" xmlns="http://www.w3.org/2000/svg" xmlns:xlink="http://www.w3.org/1999/xlink" x="0px" y="0px"
	 viewBox="0 0 768 1366" style="enable-background:new 0 0 768 1366;" xml:space="preserve">
<style type="text/css">
	.st0{fill:#FFE000;}
	.st1{fill:#FFF800;}
	.st2{fill:#FFFA94;}
	.st3{opacity:0.1091;fill:#FFE000;enable-background:new    ;}
	.st4{fill:#FFE420;}
	.st5{fill:none;}
	.st6{fill:none;stroke:#FFD400;stroke-width:5;stroke-miterlimit:10;}
	.st7{fill:#8C8B88;stroke:#777774;stroke-width:10;stroke-miterlimit:10;}
	.st8{fill:#020202;}
	.st9{fill:#8C8B88;}
	.st10{fill:#808080;}
	.st11{fill:#808080;stroke:#4D4D4D;stroke-width:10;stroke-miterlimit:10;}
	.st12{fill:#8C8B88;stroke:#4D4D4D;stroke-width:10;stroke-miterlimit:10;}
	.st13{font-family:'AndaleMono';}
	.st14{font-size:247.9638px;}
	.st15{font-size:108.4407px;}
	.st16{font-size:104.8813px;}
	.st17{font-size:179.4282px;}
	.st18{fill:#F72A2A;}
	.st19{font-size:245.3462px;}
</style>
<symbol  id="lightbulb" viewBox="-176.8 -278.5 353.5 557">
	<g>
		<g>
			<rect x="-124.7" y="191.1" class="st0" width="50.4" height="43.7"/>
		</g>
		<g>
			<rect x="-174.2" y="59.9" class="st0" width="50.4" height="43.7"/>
		</g>
		<g>
			<rect x="126.3" y="59.9" class="st0" width="50.4" height="43.7"/>
		</g>
		<g>
			<rect x="-174.2" y="103.6" class="st0" width="50.4" height="43.7"/>
		</g>
		<g>
			<rect x="-174.2" y="147.3" class="st0" width="50.4" height="43.7"/>
		</g>
		<g>
			<rect x="126.3" y="103.6" class="st0" width="50.4" height="43.7"/>
		</g>
		<g>
			<rect x="126.3" y="147.3" class="st0" width="50.4" height="43.7"/>
		</g>
		<g>
			<rect x="-74.1" y="-69.5" class="st0" width="50.4" height="43.7"/>
		</g>
		<g>
			<rect x="77.1" y="-27.6" class="st0" width="50.4" height="43.7"/>
		</g>
		<g>
			<rect x="-124.7" y="-27" class="st0" width="50.4" height="43.7"/>
		</g>
		<g>
			<rect x="-23.7" y="234.8" class="st0" width="50.4" height="43.7"/>
		</g>
		<g>
			<rect x="77.1" y="191.1" class="st0" width="50.4" height="43.7"/>
		</g>
		<g>
			<rect x="-74.1" y="234.8" class="st0" width="50.4" height="43.7"/>
		</g>
		<g>
			<rect x="26.8" y="234.8" class="st0" width="50.4" height="43.7"/>
		</g>
		<g>
			<rect x="26.8" y="-69.5" class="st0" width="50.4" height="43.7"/>
		</g>
		<g>
			<rect x="-23.7" y="-69.5" class="st0" width="50.4" height="43.7"/>
		</g>
		<g>
			<rect x="-174.2" y="16.2" class="st0" width="50.4" height="43.7"/>
		</g>
		<g>
			<rect x="126.3" y="16.2" class="st0" width="50.4" height="43.7"/>
		</g>
		<rect x="-124" y="16.1" class="st1" width="251.5" height="174.9"/>
		<rect x="-74.1" y="191.1" class="st1" width="151.3" height="43.7"/>
		<rect x="-74.1" y="-25.8" class="st1" width="151.3" height="42.5"/>
		<rect x="-74.1" y="191.1" class="st2" width="50.4" height="43.7"/>
		<rect x="-124.7" y="147.3" class="st2" width="50.4" height="43.7"/>
		<g>
			<g>
				<g>
					<path class="st3" d="M-2.1-22.8c-1.8,8.3-4,16.4-6.7,24.5c-2,6.2-4.3,12.2-6.8,18.2c-2.4,6.1-5.1,12-8,17.9
						c-3.9,7.9-8.2,15.6-12.8,23.1c-0.4-0.4-0.7-0.9-0.8-1.5c-0.7-1.9-1.3-3.9-1.9-5.8s-1.2-3.9-1.8-5.9c-0.2-0.5-0.3-1.1-0.2-1.6
						c4.3-7.4,8.3-15,12-22.8c2.8-5.8,5.3-11.6,7.5-17.6c2.5-5.9,4.6-11.9,6.5-17.9c2.5-7.9,4.4-15.8,5.8-23.9
						c0.5,0.3,0.8,0.7,1,1.3c1,1.7,2,3.5,3,5.2c1,1.8,1.9,3.5,2.8,5.3C-2.2-23.9-2.1-23.4-2.1-22.8z"/>
					<path class="st3" d="M-1.6-24.8c-1.8,8.3-4,16.4-6.6,24.4c-2,6.2-4.3,12.2-6.8,18.1c-2.4,6.1-5.1,12-8,17.8
						c-3.9,7.9-8.2,15.6-12.8,23.1c-0.4-0.3-0.6-0.6-0.8-1.1c-0.7-1.5-1.3-3-1.9-4.5s-1.2-3-1.8-4.5c-0.2-0.4-0.3-0.9-0.2-1.3
						c4.3-7.4,8.4-15,12-22.8c2.8-5.8,5.3-11.7,7.5-17.6c2.4-5.9,4.6-11.9,6.4-18C-12.1-19-10.2-27-8.7-35c0.4,0.2,0.8,0.5,1,0.9
						c1,1.3,1.9,2.6,2.9,4c0.9,1.3,1.8,2.7,2.7,4.1C-1.9-25.7-1.6-25.3-1.6-24.8z"/>
					<path class="st3" d="M-1-19.6C-2.9-11.4-5.1-3.3-7.7,4.7c-2,6.2-4.3,12.2-6.9,18.2C-17,29-19.7,35-22.7,40.8
						c-4,7.9-8.3,15.6-13,23.2c-0.4,0.7-0.9-1.3-0.9-1.3c-0.3-0.9-0.5-1.8-0.7-2.7c-0.2-0.5-0.2-1-0.2-1.5c4.6-7.5,8.8-15.1,12.7-23
						c2.9-5.8,5.6-11.7,7.9-17.8c2.5-5.9,4.8-11.9,6.7-18.1c2.6-7.9,4.8-15.9,6.5-24c0.2-0.8,1.1,1.1,1.1,1c0.4,0.8,0.8,1.6,1.2,2.4
						C-1.1-20.5-1.1-20-1-19.6z"/>
					<path class="st3" d="M0-24.1C-2.7-16.2-5.2-8.3-7.6-0.3c-2,6.2-4.3,12.3-6.9,18.2c-2.4,6.1-5.1,12.1-8.1,17.9
						c-4,7.9-8.3,15.7-13,23.2c-0.4,0.6-1.1-0.6-0.9-1c4.7-7.5,9-15.2,12.9-23.2c3-5.8,5.7-11.8,8.1-17.9c2.6-5.9,4.9-12,6.9-18.2
						c2.2-7.8,4.8-15.5,7.8-23.1C-0.6-24.8,0.1-24.6,0-24.1z"/>
					<path class="st3" d="M-2.6-25.9c-1.8,8.2-4,16.4-6.6,24.4c-2,6.2-4.3,12.2-6.8,18.1c-2.4,6.1-5.1,12-8,17.8
						c-3.9,7.9-8.2,15.6-12.8,23.1c-0.4-0.3-0.6-0.7-0.8-1.2c-0.7-1.6-1.3-3.2-1.9-4.7c-0.6-1.6-1.2-3.2-1.7-4.8
						c-0.2-0.4-0.3-0.9-0.2-1.4c4.3-7.4,8.3-15,11.9-22.8C-26.7,16.8-24.3,11-22,5c2.4-5.9,4.5-11.9,6.4-17.9
						c2.4-7.8,4.3-15.7,5.8-23.8c0.4,0.2,0.8,0.5,1,1c1,1.4,2,2.8,2.9,4.2c1,1.4,1.9,2.8,2.8,4.3C-2.7-26.8-2.6-26.4-2.6-25.9z"/>
					<path class="st3" d="M-2-23.8C-3.8-15.5-6-7.4-8.7,0.6c-2,6.2-4.3,12.2-6.8,18.2c-2.4,6.1-5.1,12-8,17.9
						c-3.9,7.9-8.2,15.6-12.8,23.1c-0.4-0.4-0.7-0.8-0.8-1.4c-0.7-1.9-1.4-3.7-2-5.6c-0.7-1.9-1.3-3.8-1.9-5.6
						c-0.2-0.5-0.3-1-0.2-1.6c4.3-7.4,8.3-15,11.9-22.8c2.8-5.8,5.2-11.6,7.5-17.6c2.4-5.9,4.5-11.9,6.4-17.9
						c2.4-7.8,4.4-15.8,5.8-23.9c0.5,0.3,0.8,0.7,1.1,1.2c1.1,1.7,2.1,3.3,3.1,5s2,3.4,3,5.1C-2.2-24.9-2.1-24.4-2-23.8z"/>
					<path class="st3" d="M-1.7-25.2c-1.7,8.3-4,16.4-6.6,24.4c-2,6.2-4.3,12.2-6.8,18.2c-2.4,6.1-5.1,12.1-8.1,17.9
						c-3.9,7.9-8.3,15.6-12.9,23.2c-0.4,0.7-0.9-0.9-0.9-1c-0.2-0.6-1.4-2.8-1-3.5c4.5-7.5,8.7-15.2,12.5-23
						c2.9-5.8,5.5-11.7,7.8-17.8c2.5-5.9,4.7-12,6.7-18.1c2.7-7.9,4.7-15.9,6.2-24.1c0.2-0.8,1.1,0.7,1.2,0.7c0.5,0.7,0.9,1.3,1.4,2
						C-2.1-26-1.9-25.6-1.7-25.2z"/>
					<path class="st3" d="M-0.1-21.2C-2-13-4.2-4.9-6.9,3.1c-2.7,8.2-5.9,16.3-9.4,24.2c-5.4,12.2-11.8,23.6-18.5,35.1
						c-0.4,0.7-0.9-1-0.9-1.1c-0.3-0.8-0.6-1.6-0.8-2.4c-0.2-0.4-0.3-0.9-0.3-1.3c8.7-15.1,16.9-30.5,23-46.9
						c1.4-4,2.9-8.1,4.3-12.1c2.6-7.9,4.8-15.9,6.5-24c0.2-0.8,1.1,0.8,1.1,0.8c0.5,0.7,0.9,1.4,1.3,2.1
						C-0.5-22.1-0.2-21.7-0.1-21.2z"/>
					<path class="st3" d="M-1.9-26.2C-3.7-18-6-10-8.6-2c-2,6.2-4.3,12.2-6.8,18.1c-2.4,6.1-5.1,12-8,17.9
						c-3.9,7.9-8.2,15.6-12.8,23.1c-0.1,0.2-1.9-3.7-1.9-3.6c-0.3-0.6-1.7-3-1.2-3.9c4.4-7.5,8.5-15.1,12.2-22.9
						c2.8-5.8,5.4-11.7,7.6-17.7c2.4-5.9,4.6-11.9,6.5-18c2.5-7.8,4.5-15.7,6.1-23.7c0.1-0.2,2.9,3.1,2.8,3
						C-3.6-29.1-1.6-27.1-1.9-26.2z"/>
					<path class="st3" d="M-2.5-24.9c-1.7,8.2-4,16.4-6.6,24.4c-2,6.2-4.3,12.2-6.8,18.1c-2.4,6.1-5.1,12-8,17.8
						c-3.8,7.9-8.2,15.6-12.7,23.1c-0.4-0.3-0.6-0.8-0.8-1.3c-0.7-1.7-1.3-3.4-1.9-5.2c-0.6-1.7-1.2-3.5-1.8-5.2
						c-0.2-0.5-0.3-1-0.2-1.5c4.3-7.4,8.3-15,11.9-22.8c2.8-5.8,5.2-11.6,7.5-17.6C-19.5-1-17.4-7-15.5-13
						c2.4-7.8,4.3-15.8,5.8-23.8c0.5,0.2,0.8,0.6,1,1.1c1,1.5,2,3.1,3,4.6c1,1.5,1.9,3.1,2.8,4.7C-2.6-25.9-2.5-25.4-2.5-24.9z"/>
					<path class="st3" d="M-1.3-25.2C-3.2-17-5.5-8.9-8.1-1c-2,6.2-4.3,12.2-6.8,18.2c-2.4,6.1-5.1,12-8,17.9
						c-3.8,7.9-8.2,15.6-12.7,23.1c-0.1,0.2-2.1-4-2-3.9c-0.3-0.6-1.8-3.3-1.3-4.1c4.4-7.5,8.5-15.1,12.2-22.9
						c2.8-5.8,5.4-11.7,7.7-17.7c2.4-5.9,4.6-11.9,6.5-18C-10-16.2-8-24.1-6.4-32.1c0.3,0.1,0.6,0.2,0.8,0.6
						c0.8,0.9,1.5,1.8,2.2,2.7C-3.2-28.4-1.1-26.2-1.3-25.2z"/>
					<path class="st3" d="M0.7-24.6C-4.1-10.5-8.2,3.7-14,17.4c-2.4,6.1-5.1,12.1-8.1,17.9c-4,7.9-8.3,15.7-13,23.2
						c-0.3,0.5-1-0.2-0.8-0.6c4.7-7.5,9-15.3,12.9-23.2c3-5.8,5.7-11.8,8.1-17.9c2.6-6,4.9-12,6.9-18.2C-5.7-9.3-3.2-17-0.2-24.7
						C-0.1-25,0.8-25,0.7-24.6z"/>
				</g>
			</g>
		</g>
		<g>
			<g>
				<g>
					<path class="st3" d="M20.9-24c-1.1,16.3-2.3,32.6-1.6,49c0.2,6.6,0.9,13.1,2,19.5c0.8,4.9,1.9,9.8,3.3,14.6
						c0-0.1-0.1-0.3-0.1-0.4c0.8,2.5,1.6,5,2.4,7.5c0-0.1-0.1-0.3-0.1-0.4c1.6,4.7,3.6,9.3,5.9,13.8s4.9,8.8,7.9,12.9
						c0.3,0.4,0.3,0.5-0.2,0.3c-1-0.5-2-1.2-2.9-1.9c-1.8-1.3-3.6-2.6-5.4-3.9c-1-0.7-1.9-1.4-2.7-2.2c-2.9-5.3-5-8.9-7.3-14.5
						c-3-7.2-5.3-14.7-7-22.4c-2.6-11.6-3.9-23.4-4.2-35.2c-0.5-16.3,0.8-32.6,1.4-48.8c0.5,0.2,0.9,0.6,1.2,1.1
						c1.2,1.6,2.4,3.1,3.6,4.7s2.3,3.2,3.5,4.8C20.7-25,20.9-24.5,20.9-24z"/>
					<path class="st3" d="M21.4-25.9c-0.7,10.2-1.3,20.4-1.6,30.6c-0.3,10.1-0.4,20.5,0.9,30.5c0.7,5,1.5,9.9,2.5,14.8
						c1.6,7.4,4.1,14.4,6.8,21.5c-0.1-0.1-0.1-0.2-0.2-0.3c1.1,2.4,2.2,4.8,3.4,7.2c-0.1-0.1-0.1-0.2-0.2-0.3
						c1.3,2.3,2.6,4.6,3.9,6.9c-0.1-0.1-0.1-0.2-0.2-0.3c1.4,2.1,2.8,4.2,4.2,6.3c0.3,0.4,0.2,0.3-0.2,0.3c-0.3-0.1-0.6-0.3-0.9-0.4
						c-1.1-0.5-2.1-1.1-3.1-1.7c-1.6-0.9-3.2-1.8-4.7-2.7c-0.6-0.4-1.5-0.8-1.9-1.4c-2.7-4.5-5.1-9.2-7.2-14.1
						c-0.9-2.4-1.9-4.9-2.8-7.3c-3.1-8.5-5-17.5-6.4-26.4c-0.6-3.7-1.1-7.5-1.6-11.3c-0.5-6.2-0.8-12.3-0.7-18.5
						C11.3-6.7,12.2-20.8,12.8-35c0.5,0.1,0.8,0.4,1.1,0.8c1.2,1.2,2.3,2.3,3.4,3.6c1.1,1.2,2.2,2.4,3.3,3.7
						C21.1-26.7,21.4-26.3,21.4-25.9z"/>
					<path class="st3" d="M22.4-20.8c-0.9,12.2-1.9,24.4-1.9,36.6c0,9.4,0.3,18.7,1.7,28c0.9,6.1,2.1,12.3,4,18.3
						c0.8,2.4,1.6,4.7,2.3,7.1c3.4,9.4,8.1,18.1,14,26c0.4,0.5,0.1,0.6-0.4,0.5c-0.8-0.3-2.2-1.5-2.7-2.3c-3-4.2-5.7-8.6-8.1-13.2
						c-1.1-2.3-2.2-4.6-3.2-7c-2.6-6-4.5-12.2-6.1-18.6c-2.5-10.2-3.9-20.4-4.3-30.8c-0.8-16.3,0.6-32.5,1.6-48.7
						c0.1-0.9,1.2,0.9,1.2,0.8c0.5,0.7,0.9,1.4,1.4,2.1C22-21.7,22.3-21.3,22.4-20.8z"/>
					<path class="st3" d="M23.4-25.6c-1.3,5.9-2,11.8-2.1,17.8c-0.4,6.1-0.6,12.3-0.6,18.4c0,12.9,0.7,26.2,3.8,38.8
						c1.8,7.2,3.9,14.4,7,21.2c1.1,2.2,2.2,4.5,3.3,6.7c2.4,4.4,5.1,8.6,8.1,12.6c0.6,0.8-1.2,0.5-1.5,0.1c-3-4-5.7-8.3-8-12.8
						c-2.3-4.4-4.3-9-6-13.7c-2.5-7.1-4.4-14.3-5.7-21.7c-1.1-6.5-1.7-13.1-2-19.7c-0.3-8.2-0.3-16.3,0.1-24.5
						c-0.2-7.9,0.7-15.7,2.8-23.3C22.7-26.3,23.5-26.1,23.4-25.6z"/>
					<path class="st3" d="M20.4-26.9c-0.8,12.2-1.8,24.5-1.8,36.7c0,9.4,0.3,18.8,1.6,28.1c0.9,6.2,2.1,12.4,3.8,18.4
						c2.1,7.3,4.9,14.2,8.2,21.1c-0.1-0.1-0.1-0.2-0.2-0.3c1.3,2.3,2.6,4.6,3.9,7c-0.1-0.1-0.1-0.2-0.2-0.3c1.5,2.2,3,4.5,4.4,6.7
						c-0.5,0-0.9-0.1-1.4-0.4c-1.6-0.8-3.1-1.6-4.7-2.4c-1.5-0.8-3.1-1.7-4.6-2.6c-0.5-0.2-0.8-0.5-1.1-0.9
						c-2.7-4.6-5.1-9.3-7.1-14.2c-0.9-2.5-1.9-4.9-2.8-7.4C15.4,54,13.5,45,12.2,36c-0.6-3.8-1.1-7.5-1.5-11.3
						C10.2,18.5,10,12.4,10,6.2c0-14.2,0.8-28.3,1.4-42.5c0.5,0.1,0.8,0.4,1.1,0.8c1.2,1.2,2.4,2.5,3.6,3.7c1.2,1.3,2.3,2.5,3.4,3.8
						C20.1-27.8,20.4-27.4,20.4-26.9z"/>
					<path class="st3" d="M21-24.9c-0.7,10.2-1.4,20.4-1.6,30.6c-0.3,10.1-0.4,20.5,0.9,30.5c0.6,5,1.5,9.9,2.5,14.8
						c1.6,7.4,4.1,14.4,6.8,21.4c-0.1-0.1-0.1-0.3-0.2-0.4c1.1,2.4,2.2,4.8,3.4,7.2c-0.1-0.1-0.1-0.3-0.2-0.4
						c2.3,4.5,4.9,8.8,7.9,12.9c0.2,0.4,0.3,0.4-0.2,0.3c-0.3-0.2-0.7-0.4-1-0.5c-1.2-0.7-2.3-1.4-3.4-2.2c-1.8-1.1-3.5-2.3-5.2-3.5
						c-0.7-0.5-1.7-1-2.1-1.8c-2.7-4.6-5.1-9.3-7.1-14.2c-0.9-2.5-1.9-4.9-2.8-7.4c-3.1-8.6-4.9-17.6-6.2-26.6
						c-0.6-3.8-1.1-7.6-1.5-11.3c-0.5-6.2-0.8-12.3-0.7-18.5c0-14.2,0.9-28.4,1.4-42.6c0.5,0.2,0.9,0.5,1.2,1c1.3,1.5,2.5,3,3.8,4.5
						c1.2,1.5,2.5,3.1,3.7,4.6C20.8-25.9,20.9-25.4,21-24.9z"/>
					<path class="st3" d="M21.4-26.4c-1.5,24-3.5,48.3,1.2,72c1.5,7.4,3.5,14.5,6.2,21.5c1.3,3.5,2.8,6.9,4.6,10.2
						c2.3,4.5,5,8.7,8,12.8c0.5,0.8-1.7-0.2-1.5-0.1c-0.8-0.4-1.6-0.8-2.4-1.2c-0.4-0.2-0.8-0.4-1.2-0.8c-2.9-4.3-5.4-8.7-7.6-13.3
						c-1-2.3-2-4.7-3-7c-3.4-8.2-5.5-16.9-7-25.6C18,38.4,17.5,34.7,17,31c-0.6-6.1-0.9-12.2-0.9-18.3C15.9-1.5,17-15.7,17.7-29.9
						c0-0.8,1.2,0.5,1.3,0.6c0.6,0.6,1.2,1.2,1.7,1.8C20.9-27.2,21.3-26.8,21.4-26.4z"/>
					<path class="st3" d="M23.1-22.5c-1.8,23.9-3.6,48.2,1.1,71.9c1.5,7.4,3.5,14.5,6.3,21.5c1.3,3.5,2.9,6.9,4.7,10.2
						c2.4,4.4,5,8.7,8.1,12.7c0.5,0.7-1.6-0.4-1.3-0.3c-0.9-0.6-2.2-1.2-2.8-2.2c-3-4.2-5.6-8.6-7.9-13.2c-1.1-2.3-2.1-4.6-3.2-7
						c-3.5-8.2-5.8-16.8-7.4-25.6c-0.7-3.7-1.3-7.4-1.8-11.1c-0.7-6.1-1-12.2-0.9-18.3c-0.1-14.2,0.9-28.3,1.8-42.5
						c0-0.8,1.2,0.7,1.2,0.7c0.5,0.6,1.1,1.3,1.6,1.9C22.9-23.3,23-22.9,23.1-22.5z"/>
					<path class="st3" d="M21.3-27.3C20.5-17.2,19.9-7,19.5,3.1c-0.5,17.5,0.2,35.2,5.3,52.3c1.4,4.8,3.1,9.5,5,14.2
						c2.9,7.1,6.9,13.4,11.1,19.7c0.6,1-2.6-0.6-2.3-0.4c-1.3-0.6-2.6-1.1-3.9-1.8c-0.7-0.3-1.4-0.6-2-1.1
						c-3.8-6.6-3.2-5.2-5.7-10.4c-1.7-3.4-3.2-6.9-4.5-10.5c-1.8-4.8-3.3-10-4.5-15c-1.5-6.2-2.4-12.5-3.3-18.8
						C13.5,22,13.4,12.5,13.5,3c0.2-12,1-24.1,1.6-36.1c0.3,0,0.6,0.1,0.9,0.4c0.9,0.7,1.7,1.5,2.5,2.2C18.9-30,21.4-28.2,21.3-27.3
						z"/>
					<path class="st3" d="M20.5-26c-0.7,10.2-1.2,20.4-1.6,30.6c-0.3,10.1-0.4,20.5,0.9,30.5c0.6,5,1.5,9.9,2.5,14.8
						c1.6,7.4,4.1,14.4,6.8,21.5C29,71.3,29,71.2,28.9,71c1.1,2.4,2.2,4.8,3.4,7.2c-0.1-0.1-0.1-0.2-0.2-0.4c1.3,2.3,2.6,4.6,3.9,7
						c-0.1-0.1-0.1-0.2-0.2-0.3c1.4,2.1,2.8,4.2,4.2,6.4c0.3,0.4,0.2,0.3-0.2,0.3c-0.3-0.2-0.7-0.3-1-0.5c-1.1-0.6-2.2-1.3-3.3-1.9
						c-1.7-1-3.4-2-5.1-3.1c-0.6-0.4-1.6-0.9-2-1.6c-2.7-4.6-5.1-9.3-7.1-14.2c-0.9-2.5-1.9-4.9-2.8-7.4c-3-8.6-4.9-17.6-6.2-26.6
						c-0.6-3.8-1.1-7.5-1.5-11.3c-0.5-6.2-0.7-12.3-0.7-18.5c0-14.2,0.8-28.3,1.4-42.5c0.5,0.2,0.9,0.5,1.2,0.9
						c1.2,1.4,2.4,2.7,3.6,4.1c1.2,1.4,2.4,2.8,3.5,4.2C20.3-26.9,20.4-26.5,20.5-26z"/>
					<path class="st3" d="M21.9-26.3C21-14.2,20-1.9,20,10.3c0.1,4.1,0.1,8.1,0.2,12.2c0.1,7.8,1.1,15.5,3.1,23
						c0.6,5,1.7,9.8,3.3,14.5c1.1,3.6,2.3,7.1,3.9,10.6c1.1,2.3,2.1,4.5,3.2,6.8c2.3,4.5,5,8.8,8,12.9c0.7,1-2.7-0.7-2.3-0.6
						c-1.4-0.6-2.7-1.3-4-2c-0.7-0.3-1.4-0.7-2-1.2c-2.6-4.5-5.2-9-7.4-13.7c-1.1-2.3-2.1-5-3-7.4c-2.2-6-3.9-12.1-5.2-18.4
						c-1.7-8.2-2.9-16.6-3.4-25c-1.1-18.2,0.2-36.4,1.1-54.6c0.4,0,0.6,0.2,0.9,0.4c0.9,0.8,1.8,1.6,2.6,2.4
						C19.4-29.3,21.9-27.4,21.9-26.3z"/>
					<path class="st3" d="M24.1-26.1c-2,9.9-2.7,19.9-2.2,30c-0.8,10.2-0.6,20.3,0.6,30.4c0.8,6.2,2,12.3,3.6,18.3
						s3.5,11.9,6.1,17.6c1.1,2.2,2.2,4.5,3.3,6.7c2.4,4.4,5.1,8.6,8.1,12.6c0.5,0.8-1.1,0.6-1.3,0.2c-3-4-5.7-8.3-8-12.7
						c-2.3-4.4-4.3-9-6-13.7c-3-8.2-4.9-16.7-6.2-25.4c-1.4-9.3-1.7-18.7-1.7-28.2c0.1-4.1,0.2-8.2,0.3-12.3
						c0-7.9,0.9-15.8,2.7-23.5C23.4-26.5,24.1-26.6,24.1-26.1z"/>
				</g>
			</g>
		</g>
		<g>
			<g>
				<g>
					<g>
						<g>
							<path class="st4" d="M47,85.3c-0.1,0.1-0.3,0.1-0.3-0.2l0.2-0.3L47,85.3z"/>
							<path class="st4" d="M45.9,83.7c0-0.4,0.1-0.9,0.5-0.8c-0.1,0.5,0,0.5-0.2,1c0.1,0.3,0.3,0.4,0.4,0.3c0,0.1,0.2,0.4,0.1,0.6
								c-0.4-0.3-0.5-0.7-0.5-1.3C45.9,83.5,45.9,83.6,45.9,83.7z"/>
							<path class="st4" d="M22.5,70.9h0.2C22.7,70.9,22.7,70.9,22.5,70.9z"/>
							<path class="st4" d="M5.4,72.1c0.1,0,0.2,0,0.2,0C5.4,72.1,5.4,72.1,5.4,72.1z"/>
							<path class="st4" d="M2.5,72.9c0.1,0,0.1,0,0.2-0.1C2.7,72.9,2.7,73,2.5,72.9z"/>
							<path class="st4" d="M22.5,70.9L22,71C22,70.9,22.4,70.9,22.5,70.9z"/>
							<path class="st4" d="M44.4,79.9c0,0.1,0.1,0.2,0.1,0.3L44.4,79.9L44.4,79.9z"/>
							<path class="st4" d="M29.9,72.5H30c0,0,0.1,0.1,0.1,0.2L29.9,72.5z"/>
							<path class="st4" d="M35.1,74.6c-0.1,0,0-0.3,0-0.4c0,0.1,0.1,0.2,0.2,0.3C35.4,74.5,35.3,74.5,35.1,74.6z"/>
							<path class="st4" d="M42.8,79.6L42.8,79.6L42.8,79.6z"/>
							<path class="st4" d="M25.9,71.6C25.9,71.7,25.9,71.7,25.9,71.6C25.9,71.7,25.9,71.7,25.9,71.6z"/>
							<path class="st4" d="M-43.9,43.6C-43.7,43.6-43.7,43.7-43.9,43.6C-43.9,43.7-43.9,43.6-43.9,43.6z"/>
							<path class="st4" d="M-50.3,45.4L-50.3,45.4c0.1,0.1,0.1,0.1,0.1,0.2L-50.3,45.4z"/>
							<path class="st4" d="M-2.6,74.3L-2.6,74.3C-2.5,74.3-2.6,74.3-2.6,74.3z"/>
							<path class="st4" d="M-10.9,60.7c0.5,0.3-0.2-0.9,0.5-0.4C-10.5,60.3-10.3,61.1-10.9,60.7z"/>
							<path class="st4" d="M44.4,79.8c0-0.1-0.1-0.1-0.1-0.2C44.3,79.7,44.4,79.7,44.4,79.8z"/>
							<path class="st4" d="M-10.3,60.3L-10.3,60.3L-10.3,60.3L-10.3,60.3z"/>
							<path class="st4" d="M-12.1,79.3l-0.1-0.1C-12.1,79.2-12.1,79.2-12.1,79.3z"/>
							<path class="st4" d="M-5.7,74.5l-0.2,0.1C-6,74.5-5.9,74.5-5.7,74.5z"/>
							<path class="st4" d="M-11.5,83c0.1,0.1,0.1,0.1,0.2,0.2c0,0,0,0-0.1,0C-11.3,83.1-11.3,83.1-11.5,83z"/>
							<path class="st4" d="M-7.9,84.2C-7.9,84.2-8,84.3-7.9,84.2C-8,84.3-8,84.3-8.1,84.3C-8,84.3-8,84.2-7.9,84.2z"/>
							<path class="st4" d="M-28.3,41.6c-0.1,0.1-0.2,0.1-0.3,0.2C-28.6,41.6-29.3,41.4-28.3,41.6z"/>
							<path class="st4" d="M44.4,80c0-0.1,0-0.1,0-0.2C44.4,79.8,44.4,79.9,44.4,80L44.4,80z"/>
							<path class="st4" d="M-13.1,84.6c0.3,0.2,0.5,0.5,0.8,0.7C-12.6,85.1-12.7,84.8-13.1,84.6z"/>
							<path class="st4" d="M-26.1,70.1h0.2C-26,70.1-26.1,70.1-26.1,70.1z"/>
							<path class="st4" d="M-9.5,86.5c0.2-0.1,0.4-0.1,0.6-0.2c0,0,0.1,0,0.1,0.1C-9,86.5-9.1,86.5-9.5,86.5z"/>
							<path class="st4" d="M-28.6,41.8L-28.6,41.8L-28.6,41.8z"/>
							<path class="st4" d="M-34.2,41.3c0.8-0.1,0.4,0.3,0.6,0.5c0.9,0,0.4-0.3,0.7-0.6c0.6,0,1.1,0.4,1.5,0.3c0-0.1,0.1-0.1,0-0.2
								c0.3,0.1,0.8,0.1,1.3,0.2c0.5,0,1,0.1,1.3,0.3c0.1,0,0.1-0.1,0.1-0.1c-0.1,0.2-0.2,0.4-0.2,0.5c0.4,0.1,0.6,0.3,0.8,0.1
								c-0.2,0-0.2-0.1-0.3-0.2l0.4,0.2c0.4-0.3-0.5-0.2-0.4-0.4c0.7,0.2,1.5,0.7,2,0.8c0.2-0.3-1.3-0.4-0.4-0.5l-0.9-0.1
								c0.8-0.4-0.5-0.1,0.2-0.5c1.2,0.2,1.3,0.5,2.4,0.8c0.2,0.3-0.2,0.2,0,0.5c0.7,0.5,1.1,0.5,1.4,0.4c0.3,0,0.6-0.1,1,0.5
								c0.1,0.4-0.1,0.8,0.7,1.2v-0.5c0.9,0.8,0.1,0.8,1.1,1.5c0-0.3-0.5-0.7-0.3-0.6c0.7,0.4,0.2,0.5,0.6,1l0.3-0.1
								c0.7,1,1.2,2.2,1.8,3.4c0.1-0.1,0-0.4,0.3-0.1c0.6,1.5,1.5,3.2,2.1,4.7c0,0.2-0.1,0.5-0.2,0.7c0,0.1,0.2,0.2,0.2,0.1
								c0.2,0.6-0.2,0.1-0.2,0.4c0,0.4,0.2,0.4,0.3,0.2c-0.1,1.2-0.3,3.2-0.2,4.4c0-0.1,0.1-0.1,0.1-0.2c0,1-0.8,0.9-0.7,1.8
								l0.1-0.1c-0.2,1-0.7,1.9-1.2,2.8c-0.5,0.8-1.1,1.6-1.5,2.3c-0.2,0-0.6,0.3-0.9,0.7c-0.4,0.3-0.7,0.6-0.9,0.4
								c-0.8,0.9-0.4,0.8-1.8,1.7c-0.4,0.2-0.7,0-1.3,0.1l0.1,0.3c-0.3,0-0.5,0-0.8-0.1l-0.3,0.5c-0.2,0-0.3,0-0.5,0.1
								c0.2-0.1,0.4-0.2,0.3-0.3c-0.8,0.1-1.8,0.6-1.9,0.7c-0.3,0-0.6,0-1-0.1c-0.5,0-1-0.1-1.4-0.2c0,0.1,0.5,0.2,0.9,0.3
								c-1.5-0.4-0.4,0.3-1.8-0.1c0.2-0.1,0-0.2,0.1-0.2c-0.3,0.1-0.3-0.2-0.4-0.4c-0.1-0.2-0.1-0.6-0.2-0.9
								c-0.1-0.6-0.2-1.4-0.1-1.7l-0.2,0.2c-0.1-1.4,0.3-3,0.8-4.5c-0.1,0.6,0.3,0.5,0.5,0.1l-0.3-0.3c0.3-0.2,0,0.5,0.4,0
								c0.2-0.5-0.2-0.5-0.4-0.2l0.4-0.6c-0.1-0.1-0.2,0.1-0.3,0c0.3-0.2,0.2-1.3,0.8-1.5l-0.1-0.1c0.8-1.4,1.4-1.8,2.4-2.7
								c0.2,0.2,0.5-0.2,1-0.2c0.7-0.6,1.4-1.4,2.5-1.8c0.8-0.2,0.3,0.1,0.7,0.2c0-0.3,1-0.6,0.4-0.6c1.3-0.3,1.7-0.4,3.4-0.4
								c-0.2,0.1-0.4,0.2-0.3,0.3c0.3,0,0.7-0.2,0.6-0.3h-0.1c0.9,0.1,2,0,3.1,0s2.1,0.2,2.7,0.8l-0.1-0.1c0.5,0.3,0.9,0.6,1.3,1
								c0.6,0.4-0.3-0.4,0.3-0.2c0.6,0.7,1.1,1.1,1.6,1.5S-9.3,59-9,59.6c0.6,0.2,1.1,1,1.6,1.9c0.4,0.9,0.8,1.8,1.3,2.3h-0.2
								c0,0.4,0.3,0.4,0.4,0.6c-0.1,0-0.3-0.3-0.3,0c1,2.8,2.4,5.7,3.1,8.8c0.2,1.1-0.8,0.8-0.2,2.1l0.3-0.4c0,1.2,0.1,2.3,0.1,3.5
								c0.1,1.2,0,2.5-0.5,3.6c0.1-0.1,0.2-0.1,0.3-0.3c0.1,0.3-0.1,0.8-0.3,1.2c-0.2,0.4-0.5,0.7-0.6,0.6c-0.2,0.4,0.1,0.2,0.1,0.4
								c-0.2,0.6-1.2,1-1.2,1.4c0,0.1,0.2-0.1,0.3-0.1c-0.3,0.2-1.4,1.2-1.3,0.7C-7,86.5-8,86.5-8.8,86.7c-0.3-0.1-0.7-0.2-1.1-0.2
								c-0.4-0.1-0.7-0.2-0.7-0.4c-0.1,0.2-0.5,0.1-1-0.1c-0.5-0.3-0.9-0.8-1-1.1c0,0.2-0.5-0.3-0.5,0c-0.5-0.6-0.7-1.2-0.5-1.2
								c-0.6-0.4-0.7-1.1-0.8-1.7s0-1.1-0.4-1.5c0.1-1.1,0.5-2.2,1.2-3c0.6-0.7,1.3-1.3,2-1.8c-0.2-0.2-0.6,0.1-0.9,0.4
								c-0.4,0.3-0.7,0.7-0.8,0.5c0.7-0.6,1.3-0.9,1.8-1.2c0.6-0.3,1.2-0.6,1.8-1c0.3-0.2-0.3-0.1-0.5-0.1c1.5-0.6,2.8-1.3,4.2-1.4
								c0,0-0.2,0-0.3,0c0.3-0.1,0.6-0.2,0.6,0H-6c-0.3,0.4,1.2,0.3,1.3,0.5c-0.6-0.5,1.3-0.4,0.4-1c0.2,0,0.4,0,0.4,0.2
								c0.2-0.1,0.3-0.2,0-0.3c1-0.1,0.7,0.2,1.5,0c0-0.1-0.2-0.1-0.3-0.2c0.5,0.1,0.9,0.2,1.6,0C-1.1,72-1,72-1.2,72
								C0,71.8,1,72.1,2.2,71.7c-0.5-0.4,0.4-0.2,0.4-0.6h0.7L3,71.3c0.6-0.1,1.2,0.1,1.7-0.1l-0.5-0.1L5.4,71l-0.6,0.2
								c0.7,0.1,0,0.5,0.8,0.2c-0.2,0,0.6-0.1,0.9-0.4l0,0c0.3,0.1,0.7,0.2,1.1,0c0.1-0.1-0.2-0.4-0.1-0.5c0.3,0.3,1.5-0.1,1.9,0.2
								c-0.1-0.1-0.2-0.3-0.1-0.3l0.3,0.2c0.3-0.1,0.3-0.2,0.3-0.3c0.9-0.1-0.2,0.5,0.8,0.2c-0.1,0,0-0.1-0.2-0.1c1-0.2,2,0,3-0.2
								c0.3-0.4-0.9,0-0.6-0.4c1.4,0,2.9,0.3,4.3,0.2h-0.3c0.2,0.5,1-0.3,1.7,0c-0.2,0-0.2-0.3-0.2-0.2c0.9-0.1,1.9,0.2,3.3,0.4
								l-0.2-0.1c0.6-0.1,1.5,0.1,2.1,0c0.2,0.2,0.5,0.2,0.3,0.3c1.9-0.5,3.4,0.9,5.1,0.7c-0.2,0-0.4-0.2-0.3-0.2
								c0.4,0.1,0.9,0.3,1.3,0.5c-0.2,0.2-0.2,0.1-0.5,0.2c0.1,0.2,0.5,0.4,0.8,0.5c-0.5-0.3,0.1-0.4,0.4-0.4c-0.1,0.1,0,0.2,0,0.2
								c0.8-0.2,0,0.5,1,0.5v-0.1c0.3,0.2,0.6,0.4,1,0.6c0.3-0.2-0.3-0.3-0.3-0.5c0.5,0.2,0.8,0.9,1.4,0.8c-0.2-0.2-0.5-0.3-0.7-0.4
								c0.6-0.1,0.7,0,1.1,0.1l0,0c0.3,0.1,0.6,0.2,0.9,0.3h-0.3c0.3,0.9,1.2,0.7,1.8,1.6c-0.6-0.8,0-0.3,0.1-0.6
								c0.3,0,0.6,0.1,0.6,0c0.3,0.4,0.8,0.2,1.1,0.9c0.1-0.1,0.4,0.3,0.5,0c0.5,0.4-0.2,0.1-0.2,0.2c0.6,0.8,2,0.9,2.7,2.1
								c0.7,0.9,0.6,1.3,1.2,2.1c0.3,0.2,0.1-0.5,0.1-0.5c0.5,0.3,0.7,0.7,1,1.1c0-0.1,0.1-0.1,0.3,0c0.2,0.4-0.1,0.4,0.3,0.8
								c0-0.1,0.1-0.3,0.1-0.6c0.2,0.5,0.4,1,0.6,1.5c0.2,0,0.1-0.4,0-0.6c0.2,0.6,0.7,1.4,0.5,1.7c-0.1-0.1-0.2-0.2-0.3-0.3
								c0.1,0.2,0.3,0,0.2-0.2c-0.1-0.5-0.5-0.6-0.6-0.6l0.1,0.4c-0.3,0-0.5-0.3-0.6-0.7c-0.2-0.4-0.3-0.8-0.6-1.1l-0.1,0.5
								c-0.1-0.3-0.1-0.6-0.2-0.8c-0.2-0.1-0.4,0-0.3,0.3c-0.5-0.3-0.2-0.4-0.7-0.6c-0.1,0-0.1,0,0,0.1l-0.2-0.5
								c0,0.1-0.3,0.1,0,0.3c-0.8-0.5-0.8-1.3-1.3-1.3v0.1c-0.9-0.9,0.1-0.3-0.4-1.2l-1,0.2l0.1-0.3c-0.1-0.1-0.3-0.2-0.4-0.1
								c-0.3-0.5,0.1-0.1,0-0.4c-0.3-0.1-0.7-0.4-1-0.6s-0.6-0.4-0.8-0.2c-0.1-0.3,0.6,0.2,0.1-0.3c-0.4,0.3-0.6-0.5-1.2-0.6
								c0,0.3,0.6,0.5-0.1,0.4c-0.1-0.6-1-0.5-1.4-0.7c0.1-0.3-0.9-0.6-1.6-1c0,0.1-1.5-0.4-2.2-0.5v0.1c0-0.4-0.8-0.6-1.3-0.8
								c0,0.2,0,0.3,0.3,0.5l-0.5-0.2c-0.1-0.1-0.2-0.3-0.5-0.4l0.1,0.3c-0.7-0.2-1.3-0.7-2.2-0.7c0-0.3,0.9-0.6-0.1-0.9
								c-0.1,0.1-0.1,0.4,0.1,0.5c-0.1,0-0.3-0.2-0.4-0.1l0.3,0.3c-0.4,0-0.2-0.2-0.5-0.3c0,0.2-0.3,0.1-0.2,0.3
								c0.1,0,0.3,0,0.4,0.1c-0.4,0-0.8,0-1,0.1c0-0.1,0-0.3-0.2-0.3c-0.7-0.1-0.3,0.2-0.7,0.2c-0.2-0.2-0.6-0.1-0.6-0.4
								c-0.2,0-0.3,0.1-0.3,0.2c-0.3-0.2-1.7-0.2-1.3-0.5h0.1c0,0,0,0-0.1,0l0,0l0,0c-1.2-0.4-2.5,0-3.7-0.1v0.1
								c-0.7-0.1-1.6-0.1-2.1-0.3c-0.2,0-0.5,0.2-0.4,0.3c-0.5-0.1-0.6-0.2-1.4,0c0.6,0.1-0.2,0.2,0.6,0.1c-0.7,0.1-0.9,0.3-1.6,0.1
								c0.3,0.2-0.5,0.3-0.9,0.3l0.5-0.2c-0.4,0-0.7,0-1,0.1l0.2,0.3c-1.4,0.5-2.7-0.4-3.7,0.4c-0.4-0.2,0.8-0.3,0.4-0.5
								c-0.7,0.1-1.3,0.7-1.5,0.7c-0.9,0.3-0.9-0.4-1.8-0.1c0.1-0.1,0.2-0.5-0.6-0.5c-0.7,0.1-0.7,0.6-0.3,0.6
								c0.2,0,0.2-0.1,0.2-0.1c0.2,0,0.5,0,0.3,0.2l-0.1-0.1c-0.3,0.2-1.2,0.3-1,0.5c-0.5,0-0.2-0.2,0.1-0.3
								c-0.8,0.3-1.3,0.2-2.2,0.5c0-0.1,0.1-0.2,0-0.2c-1.3,0.4-0.6-0.1-1.5,0c-0.5,0.3,0.3,0.4-0.6,0.4c-0.5,0.2-0.1,0.3,0.2,0.4
								c-0.8-0.1-1.5,0.4-1.9,0.6H-1c-0.3,0-0.5,0-0.7,0.1l0.2-0.3c-0.2,0.1-0.4,0.1-0.4,0.2c-0.3-0.1,0.1-0.4-0.4-0.5
								c-0.3,0.2-1,0.1-1.1,0.4c1-0.3,0,0.3,0.8,0.2c-0.2,0-0.4,0-0.6,0.1c0,0,0,0.1,0.1,0.1c-0.9,0.5-0.5-0.3-1.5,0
								c0.2,0.1-0.2,0.4-0.3,0.4c0.4-0.1,0.1-0.3-0.3-0.4c-0.6,0.3-0.7,0.1-1,0.2l0.4-0.2c-0.2-0.1-0.5,0-0.9,0.1
								c0,0.1,0.4,0,0.3,0.1c-0.6-0.2-1,0.7-1.7,0.7c-0.2,0.2,0.1,0.3-0.1,0.5c-0.8,0.1-0.6,0.5-1.4,0.7c0.1-0.3,0.1-0.3-0.5-0.2
								c0.4-0.2,0.8-0.3,1.2-0.5c-0.3,0-0.6,0-0.9,0.1c0.3-0.2,0.8-0.3,1-0.4c-0.4,0-0.4,0-0.3-0.2c-0.3,0.6-1.1,0.3-1.5,0.9
								l0.3,0.5c-0.6,0.7-1.5,0.7-2,1.8l0.1-0.4c-0.1,0-0.3,0.1-0.4,0.3c-0.1,0.2-0.2,0.4-0.3,0.5c0.2,0,0.2,0.3,0.3,0.4
								c-0.2-0.1-0.1,0.7-0.5,0.8c0.1,0.2,0.2,0.3,0.3,0.5c0.1,0.4,0,0.7,0,1c-0.1,0.3-0.1,0.6,0.1,1c0.1-0.3,0.3,0,0.3-0.6
								c0.1,0.3,0.3,0.5,0.1,0.5c0.2,0.1,0.2,0.8,0.6,0.9c0,0.1-0.1,0.3,0.2,0.5c0.1,0,0.1-0.1,0.1-0.1c-0.1,0.1,0.3,0.4,0,0.4
								c0.6,0.1,1.1,0.4,1.7,0.5c0.6,0.2,1.2,0.1,1.5-0.3c0.6-0.1,1.3-0.5,1.7-0.9c-0.1,0-0.1-0.1-0.1,0c0.2-0.3,0.4-0.4,0.6-0.4
								s0.4-0.1,0.5-0.6c-0.1-0.6-0.4,0.4-0.3,0.1c-0.3-0.2-0.1-0.4,0-0.7c0.2-0.3,0.4-0.7,0.2-1l-0.1,0.1c-0.1-0.5,0.4-1.1,0.4-2
								h-0.1c0.3-0.6,0.4-1.7,0.4-2.6C-5.2,77-5.1,77.1-5.4,77c0-0.4,0.4,0.1,0.4-0.7c-0.2-0.2-0.3-0.8-0.6-0.8l0.1,0.7
								c-0.4-0.3-0.1-0.9-0.2-1.3L-5.8,75c-0.1-1.1,0.3-1.1,0-2.3l0.1,0.1c0.3-0.7-0.3-0.5-0.2-1.2l-0.4-0.1c0-0.4,0-1.5-0.1-2.3
								c-0.1,0.5-0.1,1.4-0.1,1.9c-0.1-0.4-0.3-1.4-0.2-1.6c0,0.2,0,0.4,0.1,0.5c0.2-0.6,0.1-1.3-0.2-2.1c-0.7,0.4-0.9-2-1.7-2.3
								c-0.3-1.4-1.3-2.6-2.1-4c0.8,0.2-0.2-0.4,0.3-0.7c-0.2-0.3-0.3-0.5-0.3-0.5c-0.3-0.3-0.7-0.5-1-0.7c-0.3-0.1,0.1,0.4,0,0.4
								c-0.5-0.6-0.4-0.1-0.9-0.3c0.2-0.1,0-0.4-0.3-0.6c0.2,0.1,0.4,0.1,0.6,0.2c-0.6-1-1-0.3-1.7-1.1l0.2,0.3
								c-0.4-0.4-1.7-0.9-2.2-1.5c-0.1,0-0.3,0.2-0.1,0.3c-1.3-0.3-3-1-4.1-0.5L-20,57c-0.3,0-0.5-0.2-0.8,0c0,0.1,0.1,0.1,0,0.2
								c-0.1,0-0.7-0.1-1,0.1c0.1,0,0.2,0.1,0.3,0.1c-1.2,0.5-2.1,0.2-3.2,0.7c0.2,0.4-0.6,1.1-0.9,1.4h0.1c-1.1,1-2.1,1.6-2.9,2.9
								c0,0.5-0.2,1.2-0.4,2c-0.2,0.8-0.3,1.7-0.2,2.4c-0.1-0.2-0.4,0-0.4,0.3c0,0.1,0,0.5-0.1,0.5c0,0.1,0,0.2,0.2,0.1v-0.1
								c0.2,0,0.3,0.1,0.3,0.1s0,0.1,0.1,0.1c-0.1,0.2-0.2,0.3-0.3,0.5c0.1-0.1,0.2-0.1,0.3-0.2c0,0,0.1,0,0.1-0.1
								c0.1,0,0.2,0,0.3,0c0.4-0.1,0.9,0,1.3-0.1c0.9-0.1,1.6-0.3,1.9-0.7c0.4,0,0.8-0.2,1.1-0.2l-0.1-0.2c0.8-0.5,1.2-0.8,2.1-1.5
								c-0.1,0-0.2,0-0.3,0c0.5-0.4,1.2,0.1,1.6-0.4l-0.2-0.4c0.8-0.9,1.1-2,1.8-2.9c-0.1,0-0.2,0-0.3,0.1c0.2-0.5,0.3-2,0.8-1.7
								c-0.4-0.1,0.2-1.2,0.3-1.8l-0.3,0.1c0.4-0.5,0.5-0.6,0.5-1.3c-0.1-0.2-0.2-0.1-0.1,0.1c-0.2-0.6,0.2-0.5,0-1.2l-0.1,0.3
								c-0.1-0.6,0-0.6,0.1-1c0-0.4-0.3-1.2-0.6-1.2c0.1-0.1,0.2-0.5,0-0.9c-0.1,0-0.1,0.1-0.1,0.2c-0.5-0.9-0.3-1.6-0.8-2.2
								c-0.1,0-0.2,0-0.2,0c0.4,0.8,0.6,1.4,0.6,1.3c-0.2,0.1-0.5-0.5-0.7,0.1c0-0.6,0-1.6-0.5-2.1h-0.1v0.1
								c-0.1-0.1-0.1-0.2-0.2-0.4s-0.2-0.3-0.3-0.4c-0.2,0-0.5-0.6-0.7-0.9c0.2-0.1,0-0.5,0.4-0.3c0,0,0,0.1,0.1,0.3l0.1,0.1l0,0
								c0.1,0.2,0.3,0.4,0.4,0.7c0-0.3-0.1-0.6-0.4-0.8c0.1-0.2,0.1-0.5,0.1-0.7c-0.6-0.2-1.3-0.7-1.6-0.7c-0.5-0.9-1.6-1.7-1.8-2.5
								c-0.2-0.2-0.4-0.1-0.5,0c0.1,0.1,0.3,0.2,0.3,0.3c-0.2-0.2-0.5-0.5-0.9-0.7c-0.3-0.2-0.6-0.4-0.6-0.6c-0.7-0.1,0.2,0.5-0.7,0
								l0.1,0.2c-0.5-0.1-0.9-0.1-1.3-0.3s-0.8-0.3-1.2-0.5c-0.2-0.1-0.4-0.2-0.6-0.2s-0.4-0.1-0.7-0.1c-0.5,0-1,0-1.5,0.2
								c0.2-0.1,0.2-0.1,0.3-0.1c-2.5,0.5-5.4,0.5-7.8,1.6c-0.7,0.3-0.8,0.1-1.3,0l-0.1,0.3l-0.8-0.2c-1.1,0-1.7,1.1-3.2,0.9
								l0.2-0.2c-0.5,0.1-1.6,0.1-1.5,0.3c-0.1,0-0.2-0.2-0.4-0.1v0.2c-0.4,0-0.8-0.1-1.3-0.2c-1,0.1,0.2,0.7-1.3,0.7
								c-0.6-0.1-1.5-0.6-1.3-0.7c0.2,0,0.6-0.1,0.6-0.2l-0.5-0.1c0-0.5-0.3-1,0.8-1.2l0.7,0.3l0.3-0.2c-0.2,0-0.4,0-0.6,0
								c0.4-0.2,0.6,0,0.8,0.1c0.1-0.1,0.2-0.2,0.3-0.3l0.8,0.4c0.1-0.2-0.4-0.3,0.1-0.5c0.4,0.2-0.3,0.4,0.3,0.5
								c0.4-0.2,0.2-0.4,0.7-0.3c0-0.1-0.1-0.2-0.2-0.2c0.4,0.1,1-0.1,1.3,0.2c0.3-0.3,1.3-0.1,1.2-0.6c0.1,0.1,0.7,0.2,1.1,0.2
								c-0.8-0.4,1.3-0.3,1-0.8c0.6,0.4,1.8-0.2,2.7-0.1c-0.1,0-0.2-0.1-0.2,0c0.5-0.2,0.6-0.3,0.9-0.5c0.2,0.4,0.9,0.3,1.4,0.4
								c0.5-0.5-0.5-0.4-0.4-0.8c0,0.3,1.1,0.1,1,0.4c0.4-0.3,0.4-0.2,0.6-0.6c0.2,0.5,0.5,0,0.9,0.2c0.6-0.4,0.1-0.5,0.9-0.5
								C-33.6,41.4-34.2,41.3-34.2,41.3z M-18.6,49.7L-18.6,49.7c-0.1-0.1-0.1-0.3-0.2-0.3C-18.7,49.4-18.6,49.5-18.6,49.7z M-18,51
								c-0.1-0.2-0.2-0.4-0.3-0.6c-0.1,0-0.2,0.1-0.1,0.2C-18.3,50.6-18.1,50.9-18,51z M-21.1,49.2c0.1,0.2,0.2,0.2,0.2,0.2
								C-20.9,49.3-21,49.2-21.1,49.2L-21.1,49.2C-21.1,49.1-21.1,49.2-21.1,49.2z"/>
							<path class="st4" d="M-21.1,48.7C-21.1,48.6-21.1,48.6-21.1,48.7C-21.1,48.6-21,48.6-21.1,48.7c0.1,0,0.1,0.1,0.1,0.1
								C-21,48.7-21.1,48.7-21.1,48.7z"/>
							<path class="st4" d="M22.8,70.9L22.8,70.9L22.8,70.9C22.8,70.8,22.8,70.9,22.8,70.9z"/>
							<polygon class="st4" points="-24.2,69.7 -24.3,69.6 -24.1,69.6 							"/>
							<path class="st4" d="M31,71.5h0.1H31z"/>
							<path class="st4" d="M34.4,72.7c0.2,0,0.3,0.1,0.5,0.1C34.8,72.8,34.5,72.7,34.4,72.7z"/>
							<path class="st4" d="M36.9,73.8C36.9,73.9,36.9,73.9,36.9,73.8L36.9,73.8L36.9,73.8z"/>
							<path class="st4" d="M-6.1,72.6L-6.1,72.6C-6.6,72.6-6.3,72.6-6.1,72.6z"/>
							<path class="st4" d="M6.8,70.8c-0.1,0-0.3-0.1-0.4-0.1C6.5,70.7,6.8,70.6,6.8,70.8z"/>
							<polygon class="st4" points="-13.1,84.5 -13.1,84.5 -13.1,84.6 							"/>
							<path class="st4" d="M5.8,70.8c0.2-0.1,0.4-0.1,0.6-0.1C6.1,70.8,5.9,70.8,5.8,70.8z"/>
							<path class="st4" d="M45.9,82L45.9,82L45.9,82L45.9,82z"/>
							<path class="st4" d="M45.9,82.2L45.9,82.2C45.9,82.2,45.9,82.2,45.9,82.2z"/>
							<path class="st4" d="M46,82.6l-0.1-0.3C46,82.4,46.1,82.5,46,82.6z"/>
							<path class="st4" d="M43.7,79L43.7,79C43.7,78.9,43.7,79,43.7,79z"/>
							<path class="st4" d="M42.9,78.2c0.2,0.2,0.6,0.3,0.8,0.7V79C43.7,78.7,42.9,78.4,42.9,78.2z"/>
							<path class="st4" d="M38.5,76.2l0.8,0.5c-0.2,0-0.4,0-0.1,0.3C38,76.5,39.4,76.8,38.5,76.2z"/>
							<path class="st4" d="M36,74.9c0.4,0.3-0.1,0.1-0.1,0.2C35.8,74.8,35.7,74.8,36,74.9z"/>
							<path class="st4" d="M16.4,70.9l0.1,0.3C16,71.2,16.4,71.1,16.4,70.9z"/>
							<polygon class="st4" points="12.4,69.9 12.8,69.7 12.9,69.9 							"/>
							<polygon class="st4" points="10.3,71.9 10.4,71.9 9.8,71.9 							"/>
							<path class="st4" d="M-8.6,84.1l-0.1,0.3C-8.9,84.4-8.9,84-8.6,84.1z"/>
							<path class="st4" d="M-5.6,72.5C-5.8,72.4-6,72-5.9,71.7C-5.9,72-5.6,72.3-5.6,72.5z"/>
							<path class="st4" d="M-28.5,67.9L-28.5,67.9C-28.5,67.9-28.6,67.9-28.5,67.9L-28.5,67.9z"/>
						</g>
					</g>
				</g>
			</g>
		</g>
		<line class="st5" x1="-174.2" y1="16.1" x2="-174.2" y2="191"/>
		<line class="st6" x1="-174.2" y1="16.1" x2="-174.2" y2="191"/>
	</g>
	<path class="st7" d="M-52.7-85.4c38.6,0.4,77.1,0.8,115.8,1.1C48-105.7,33-127.1,17.9-148.5c20.3,0,40.5,0,60.8,0
		c-40.5-38.4-81-76.9-121.5-115.3c5.9,27.7,11.8,55.3,17.7,83c-16.7-0.6-33.4-1.1-50.2-1.7C-67.9-150.2-60.2-117.8-52.7-85.4z"/>
</symbol>
<path class="st8" d="M656,937"/>
<path class="st8" d="M537,1026"/>
<path class="st9" d="M497,930"/>
<path class="st10" d="M625,792"/>
<path class="st10" d="M627,929"/>
<path class="st10" d="M642,1108"/>
<path class="st11" d="M560,1049"/>
<path class="st11" d="M626,912"/>
<path class="st12" d="M526,935"/>
<path class="st11" d="M684,799"/>
<g>
	
		<use xlink:href="#lightbulb"  width="353.5" height="557" x="-176.8" y="-278.5" transform="matrix(2.1245 0 0 -2.1245 384.8955 690.98)" style="overflow:visible;"/>
	<path class="st11" d="M873.1,1293.3"/>
</g>
<path class="st11" d="M666,1004"/>
<path class="st11" d="M528,972"/>
<text transform="matrix(0.9762 -0.2169 0.2169 0.9762 96.6961 421.1431)" class="st13 st14">Geek</text>
<text transform="matrix(1 0 0 1 239.5803 490.8262)" class="st13 st15">of</text>
<text transform="matrix(1 0 0 1 366.058 491.5645)" class="st13 st16">the</text>
<text transform="matrix(1 0 0 1 172.1363 649.1465)" class="st13 st17">Week</text>
<text transform="matrix(0.9762 -0.2169 0.2169 0.9762 108.6961 411.7295)" class="st18 st13 st19">Geek</text>
</svg>
