<?xml version="1.0" encoding="utf-8"?>
<!-- Generator: Adobe Illustrator 22.1.0, SVG Export Plug-In . SVG Version: 6.00 Build 0)  -->
<svg version="1.1" id="Lager_1" xmlns="http://www.w3.org/2000/svg" xmlns:xlink="http://www.w3.org/1999/xlink" x="0px" y="0px"
	 viewBox="0 0 1920 1080" style="enable-background:new 0 0 1920 1080;" xml:space="preserve">
<style type="text/css">
	.st0{fill:#8AED54;}
	.st1{fill:#996A54;}
	.st2{fill:#844E38;}
</style>
<g id="Lager_1_1_">
</g>
<g id="Lager_2_1_">
</g>
<g id="Lager_3">
	<g>
		<rect x="-54.2" y="598.9" class="st0" width="2019.4" height="938"/>
	</g>
	<rect x="-54.2" y="903.9" class="st1" width="2019.4" height="738"/>
	<g>
		<polygon class="st0" points="1916.3,598.8 1942.6,559.3 1965.7,598.9 		"/>
	</g>
	<g>
		<polygon class="st0" points="1866.9,598.8 1893.2,559.3 1916.3,598.9 		"/>
	</g>
	<g>
		<polygon class="st0" points="1817.4,598.8 1843.7,559.3 1866.9,598.9 		"/>
	</g>
	<g>
		<polygon class="st0" points="1767.9,598.8 1794.3,559.3 1817.4,598.9 		"/>
	</g>
	<g>
		<polygon class="st0" points="1719.5,598.8 1745.9,559.3 1769,598.9 		"/>
	</g>
	<g>
		<polygon class="st0" points="1670.1,598.8 1696.5,559.3 1719.5,598.9 		"/>
	</g>
	<g>
		<polygon class="st0" points="1622.8,598.8 1649.2,559.3 1672.2,598.9 		"/>
	</g>
	<g>
		<polygon class="st0" points="1573.3,598.8 1599.7,559.3 1622.8,598.9 		"/>
	</g>
	<g>
		<polygon class="st0" points="1523.9,598.8 1550.2,559.3 1573.3,598.9 		"/>
	</g>
	<g>
		<polygon class="st0" points="1474.5,598.8 1500.8,559.3 1523.9,598.9 		"/>
	</g>
	<g>
		<polygon class="st0" points="1425,598.8 1451.3,559.3 1474.5,598.9 		"/>
	</g>
	<g>
		<polygon class="st0" points="1375.6,598.8 1401.9,559.3 1425,598.9 		"/>
	</g>
	<g>
		<polygon class="st0" points="1326.1,598.8 1352.5,559.3 1375.6,598.9 		"/>
	</g>
	<g>
		<polygon class="st0" points="1276.6,598.8 1303,559.3 1326.1,598.9 		"/>
	</g>
	<g>
		<polygon class="st0" points="1227.2,598.8 1253.6,559.3 1276.6,598.9 		"/>
	</g>
	<g>
		<polygon class="st0" points="1177.8,598.8 1204.2,559.3 1227.2,598.9 		"/>
	</g>
	<g>
		<polygon class="st0" points="1128.3,598.8 1154.7,559.3 1177.8,598.9 		"/>
	</g>
	<g>
		<polygon class="st0" points="1078.9,598.8 1105.2,559.3 1128.3,598.9 		"/>
	</g>
	<g>
		<polygon class="st0" points="1029.5,598.8 1055.8,559.3 1078.9,598.9 		"/>
	</g>
	<g>
		<polygon class="st0" points="980,598.8 1006.3,559.3 1029.5,598.9 		"/>
	</g>
	<g>
		<polygon class="st0" points="931.6,598.8 957.9,559.3 981.1,598.9 		"/>
	</g>
	<g>
		<polygon class="st0" points="882.1,598.8 908.5,559.3 931.6,598.9 		"/>
	</g>
	<g>
		<polygon class="st0" points="832.7,598.8 859.1,559.3 882.1,598.9 		"/>
	</g>
	<g>
		<polygon class="st0" points="783.2,598.8 809.6,559.3 832.7,598.9 		"/>
	</g>
	<g>
		<polygon class="st0" points="733.8,598.8 760.2,559.3 783.2,598.9 		"/>
	</g>
	<g>
		<polygon class="st0" points="684.4,598.8 710.8,559.3 733.8,598.9 		"/>
	</g>
	<g>
		<polygon class="st0" points="634.9,598.8 661.3,559.3 684.4,598.9 		"/>
	</g>
	<g>
		<polygon class="st0" points="585.5,598.8 611.8,559.3 634.9,598.9 		"/>
	</g>
	<g>
		<polygon class="st0" points="536.1,598.8 562.4,559.3 585.5,598.9 		"/>
	</g>
	<g>
		<polygon class="st0" points="486.6,598.8 512.9,559.3 536.1,598.9 		"/>
	</g>
	<g>
		<polygon class="st0" points="437.1,598.8 463.5,559.3 486.6,598.9 		"/>
	</g>
	<g>
		<polygon class="st0" points="387.7,598.8 414.1,559.3 437.1,598.9 		"/>
	</g>
	<g>
		<polygon class="st0" points="338.2,598.8 364.6,559.3 387.7,598.9 		"/>
	</g>
	<g>
		<polygon class="st0" points="287.7,598.8 314.1,559.3 337.2,598.9 		"/>
	</g>
	<g>
		<polygon class="st0" points="237.3,598.8 263.7,559.3 286.7,598.9 		"/>
	</g>
	<g>
		<polygon class="st0" points="189.9,598.8 216.3,559.3 239.4,598.9 		"/>
	</g>
	<g>
		<polygon class="st0" points="140.5,598.8 166.8,559.3 189.9,598.9 		"/>
	</g>
	<g>
		<polygon class="st0" points="91.1,598.8 117.4,559.3 140.5,598.9 		"/>
	</g>
	<g>
		<polygon class="st0" points="41.6,598.8 67.9,559.3 91.1,598.9 		"/>
	</g>
	<g>
		<polygon class="st0" points="-7.9,598.8 18.5,559.3 41.6,598.9 		"/>
	</g>
	<g>
		<polygon class="st0" points="-54.2,598.8 -27.8,559.3 -4.7,598.9 		"/>
	</g>
	<polygon class="st2" points="-54.2,903.9 91,1029.9 230.2,903.9 	"/>
	<polygon class="st2" points="229.8,904.9 374.9,1038.9 514.2,904.9 	"/>
	<polygon class="st2" points="516.9,903.9 662.1,1029.9 801.3,903.9 	"/>
	<polygon class="st2" points="800.9,904.9 946.1,1029.9 1085.3,904.9 	"/>
	<polygon class="st2" points="1094.4,904.9 1239.5,1029.9 1378.8,904.9 	"/>
	<polygon class="st2" points="1387.8,904.9 1532.9,1029.9 1672.2,904.9 	"/>
	<polygon class="st2" points="1681.2,904.9 1826.4,1029.9 1965.6,904.9 	"/>
	<polygon class="st1" points="3.7,903.9 90.1,971.9 173,903.9 	"/>
	<polygon class="st1" points="287.6,903.9 374.1,971.9 457,903.9 	"/>
	<polygon class="st1" points="574.8,903.9 661.2,971.9 744.1,903.9 	"/>
	<polygon class="st1" points="858.8,904.9 945.2,971.9 1028.1,904.9 	"/>
	<polygon class="st1" points="1152.2,903.9 1238.7,971.9 1321.5,903.9 	"/>
	<polygon class="st1" points="1445.6,904.9 1532.1,966.9 1615,904.9 	"/>
	<polygon class="st1" points="1739.1,904.9 1825.5,971.9 1908.4,904.9 	"/>
	<polygon class="st2" points="372.8,1086.8 228.5,959.8 88.4,1084.9 	"/>
	<polygon class="st2" points="658.9,1086.8 514.6,959.8 374.5,1084.9 	"/>
	<polygon class="st2" points="948.2,1086.8 803.9,959.8 663.8,1084.9 	"/>
	<polygon class="st2" points="1236.3,1086.8 1092,959.8 951.9,1084.9 	"/>
	<polygon class="st2" points="1529.8,1086.8 1385.5,959.8 1245.4,1084.9 	"/>
	<polygon class="st2" points="1823.2,1089.8 1678.9,962.8 1538.8,1087.9 	"/>
	<polygon class="st2" points="2111.4,1092.8 1967.1,965.8 1827,1090.9 	"/>
	<polygon class="st2" points="87.8,1086.8 -56.5,959.8 -196.6,1084.9 	"/>
	<polygon class="st1" points="314.8,1086.3 228.7,1017.8 145.4,1085.3 	"/>
	<polygon class="st1" points="30.8,1090.9 -55.2,1022.4 -138.5,1089.9 	"/>
	<polygon class="st1" points="603.1,1086.6 516.9,1018.2 433.7,1085.9 	"/>
	<polygon class="st1" points="890.1,1086.9 804.1,1018.4 720.8,1085.9 	"/>
	<polygon class="st1" points="890.1,1086.9 804.1,1018.4 720.8,1085.9 	"/>
	<polygon class="st1" points="1181.4,1086.9 1095.4,1018.4 1012.1,1085.9 	"/>
	<polygon class="st1" points="1472.8,1086.9 1386.7,1018.4 1303.4,1085.9 	"/>
	<polygon class="st1" points="1765.2,1090.9 1679.1,1022.4 1595.8,1089.9 	"/>
	<polygon class="st1" points="2053.4,1097.9 1967.3,1029.4 1884,1096.9 	"/>
</g>
<rect x="-44" y="109" class="st0" width="1985.9" height="674.2"/>
<polygon class="st0" points="1922,109 1848.2,0 1786.8,109 "/>
<polyline class="st0" points="1648.2,109 1783.4,109 1709.6,0 "/>
<polyline class="st0" points="1517.6,109 1652.8,109 1579,0 "/>
<polyline class="st0" points="1384,109 1519.2,109 1445.4,0 "/>
<polyline class="st0" points="1248.8,109 1384,109 1310.2,0 "/>
<polyline class="st0" points="1105.4,109 1240.6,109 1166.8,0 "/>
<polyline class="st0" points="970.2,109 1105.4,109 1031.6,0 "/>
<polyline class="st0" points="828.4,109 963.6,109 889.8,0 "/>
<polyline class="st0" points="689.6,109 824.8,109 751,0 "/>
<polyline class="st0" points="562.3,109 697.5,109 623.7,0 "/>
<polyline class="st0" points="421.2,109 556.5,109 482.7,0 "/>
<polyline class="st0" points="281.4,109 416.6,109 342.8,0 "/>
<polyline class="st0" points="146.6,109 281.8,109 208,0 "/>
<polyline class="st0" points="11.4,109 146.6,109 72.8,0 "/>
</svg>
