<?xml version="1.0" encoding="utf-8"?>
<!-- Generator: Adobe Illustrator 22.1.0, SVG Export Plug-In . SVG Version: 6.00 Build 0)  -->
<svg version="1.1" id="Lager_1" xmlns="http://www.w3.org/2000/svg" xmlns:xlink="http://www.w3.org/1999/xlink" x="0px" y="0px"
	 viewBox="0 0 500 500" style="enable-background:new 0 0 500 500;" xml:space="preserve">
<style type="text/css">
	.st0{fill:#E72B00;}
	.st1{fill:#FFFFFF;}
</style>
<rect x="64.2" y="194.2" width="22.1" height="111.6"/>
<rect x="86.3" y="250" width="20.4" height="92.6"/>
<rect x="106.7" y="268" width="20.9" height="37.7"/>
<rect x="127.6" y="286.9" width="62.5" height="37.2"/>
<rect x="169.1" y="324.1" width="20.9" height="18.5"/>
<rect x="190.1" y="268" width="63.7" height="18.9"/>
<rect x="190.1" y="342.5" width="64.8" height="18.5"/>
<rect x="253.7" y="286.9" width="20.5" height="55.6"/>
<rect x="273.4" y="305.5" width="86.3" height="37"/>
<rect x="339.7" y="286.9" width="105.4" height="18.6"/>
<rect x="424.3" y="194.9" width="20.8" height="92"/>
<rect x="401.8" y="268" width="22.5" height="23.5"/>
<rect x="401.8" y="157.5" width="22.5" height="37.4"/>
<rect x="380.9" y="139.1" width="20.9" height="18.3"/>
<rect x="360" y="120" width="20.9" height="19.1"/>
<rect x="317.6" y="102" width="42.3" height="18.1"/>
<rect x="147.7" y="102" width="43.1" height="18.1"/>
<rect x="127.6" y="120" width="21.2" height="18.8"/>
<rect x="106.7" y="138.9" width="20.9" height="18.1"/>
<rect x="84.7" y="158.2" width="22" height="35.9"/>
<rect x="106.7" y="342.5" width="22.5" height="18.5"/>
<rect x="127.6" y="361" width="21.2" height="18.8"/>
<rect x="148.8" y="379.2" width="41.3" height="18.8"/>
<rect x="190.1" y="398" width="126.5" height="17.7"/>
<rect x="318.1" y="381.2" width="41.6" height="16.7"/>
<rect x="359.7" y="361" width="21.7" height="18.2"/>
<rect x="382.6" y="342.5" width="19.2" height="18.5"/>
<rect x="401.8" y="302.6" width="22.5" height="40"/>
<polygon class="st0" points="85.1,194.2 86.7,250 107.1,250 107.1,268.1 128,268.1 128,286.9 190.5,286.9 190.5,268.1 254.1,268.1 
	254.1,286.9 274.6,286.9 273.8,305.5 340.1,305.5 340.1,286.9 402.2,286.9 402.2,268.1 424.7,268.1 424.7,195 402.2,195 
	402.2,157.5 381.3,157.5 381.3,139.2 360.4,139.2 360.4,120.1 318,120.1 318,102 191.2,102 191.2,120.1 149.2,120.1 149.2,138.9 
	128,138.9 128,157 107.1,158.3 107.1,194.2 "/>
<polygon class="st1" points="106.7,305.7 127.6,305.7 127.6,324.1 169.1,324.1 169.1,342.5 190.1,342.5 190.1,361 254.9,361 
	253.7,342.5 359.7,342.5 359.7,305.5 401.8,302.6 401.8,342.5 382.6,342.5 382.6,361 359.7,361 359.7,379.2 359.7,381.2 
	318.1,381.2 318.1,398 190.1,398 190.1,379.2 148.8,379.2 148.8,361 129.3,361 129.3,342.5 106.7,342.5 "/>
<rect x="190.5" y="286.9" class="st1" width="62.9" height="55.6"/>
<rect x="186.5" y="84.3" width="126.5" height="17.7"/>
</svg>
